<svg xmlns="http://www.w3.org/2000/svg" viewBox="0 0 59.5 74.72"><defs><style>.cls-1{fill:#77e4fe;}.cls-2{fill:#151c1e;}.cls-3{fill:#19181b;}.cls-4{fill:#635afd;}.cls-5{fill:#1b1a1e;}.cls-6{fill:#645cfb;}.cls-7{fill:#675cf8;}.cls-8{fill:#262626;}.cls-9{fill:#2a2a2a;}.cls-10{fill:#333;}.cls-11{fill:#010102;}.cls-12{fill:#f0f6f7;}.cls-13{fill:#101c1f;}.cls-14{fill:#b4b1ac;}.cls-15{fill:#adb0aa;}</style></defs><title>Asset 2</title><g id="Layer_2" data-name="Layer 2"><g id="Layer_1-2" data-name="Layer 1"><path class="cls-1" d="M52.86,16.6c2.76,2.15,3.59,5.38,4.07,8.48C58.89,37.8,51.61,48,39,50.31c-3,.56-6.1.71-9-.7,1-.92,2.23-.54,3.33-.48,10.11.53,19.47-7.15,21.59-17.72a35.69,35.69,0,0,0,.14-3.72c-.14,8.8-4.21,15.37-12,19.25C35.52,50.72,28,49.89,21,45c-1.85-1.28-3.68-2.61-4.58-4.81a26.34,26.34,0,0,1-2.62-13.74C14.72,16.12,24,7.17,34.38,6.94c1.42,0,2.83,0,4.24,0C44.78,8,49.1,11.64,52.25,16.86c.13.22.17.55.35.65.38.21.09-.15.09-.19A1.37,1.37,0,0,1,52.86,16.6Z"/><path class="cls-2" d="M52.86,16.6c.2,1,1.17,1.79.9,3.78C50.2,14,46.21,9,39.28,7.58c-8.82-1.5-16.5.56-21.91,8C12.14,22.7,12,30.48,16,38.36a22.07,22.07,0,0,1,1,2c5.08,6.8,12.09,9.34,20.17,8,8.82-1.47,14.36-7.07,16.86-15.7.73-2.54.2-5.19,1-7.72a15.7,15.7,0,0,1-.27,9A21.82,21.82,0,0,1,33.51,49.66l-3.49,0c-8.15-2.07-14.29-6.5-17.16-14.71A22,22,0,0,1,24.51,7.57,22.3,22.3,0,0,1,52.86,16.6Z"/><path class="cls-3" d="M14,65a64.52,64.52,0,0,1,16.53,6.8,13.44,13.44,0,0,0,12.21.73c4.62-1.87,9.36-3.53,13.21-6.85,1.39-1.19,3.6-2.55,2.56-4.58-1.11-2.19-3.27-.47-4.89-.06-2.16.55-4.25,1.41-6.47,1.84,3.09-2.19,6.63-3.15,10.4-4-.89-2.29-2.69-2.29-4.47-1.76-2.54.77-5,1.79-7.52,2.67-.74.26-1.43.85-2.56-.06l9.08-3.54c-4.59-1.43-8.32,1.59-12.58,2.08C41,56.49,43.62,56.57,45.8,55c-4.3-1.55-7.38,1.94-11,1.7,2.88-1.41,5.78-3.66,8.86-3.16,2.73.44,5.46.66,8.15,1.1a32.14,32.14,0,0,1,4.76,1.65c2.73,1,3.91,5.9,2.09,8.14a20.15,20.15,0,0,1-6,4.82,69.92,69.92,0,0,1-11,4.75,13.51,13.51,0,0,1-10.87-.91c-3.94-1.94-7.76-4.15-12-5.55a24.74,24.74,0,0,0-5.28-1.25c-3.54.09-7.08.54-10.63.48-1-.21-1.69.94-2.93.47C.78,65.89,2.16,66,3.11,65.4A11.22,11.22,0,0,1,14,65Z"/><path class="cls-4" d="M14,65a28.77,28.77,0,0,0-10.86.41l1.2-10.65c2.28-1.49,5-.9,7.42-1.27,1.17-.17,2.61-1,3.76.27Q14.73,59.38,14,65Z"/><path class="cls-5" d="M15.49,53.75l-11.18,1c-.55-.19-1.65.31-1.58-.6s1.3-.24,1.89-.64c3.73-.88,7.43-1.9,11.32-1.08,1,.42,2-.2,2.92-.29A16.59,16.59,0,0,1,34,58.1c2.89,3.42,6.23,5.59,10.86,5.63,1.49,0,3.44.1,3.76,2.15s-1,3.37-2.8,4.25c-2.64,1.33-5.38,1-8,.25q-6.21-1.75-12.33-3.83c-1.56-.53-3.27-1.19-3.44-3.3,5.8,3.71,12.3,5.13,18.75,6.61a6.55,6.55,0,0,0,5.65-1.34,2.5,2.5,0,0,0,1.16-2.35C47.39,65,46.27,65,45.43,64.8c-1.14-.2-2.35,0-3.47-.28a12.56,12.56,0,0,1-7.42-4.27C29.58,53.87,23.2,51.93,15.49,53.75Z"/><path class="cls-6" d="M2.93,66.74a17.55,17.55,0,0,1,10.63-.48c-.21,1.89-.41,3.78-.62,5.66-.13,1.12-.72,1.37-1.73,1-2.54-1-5.09-2-7.63-3C1.76,69.17,2.83,67.85,2.93,66.74Z"/><path class="cls-7" d="M15.94,52.43c-3.76.44-7.5,1.23-11.32,1.08-.07-2,1.08-2.65,2.84-2.91a42.92,42.92,0,0,0,6.27-1.24c2.21-.68,2.66.12,2.25,2.08A5.43,5.43,0,0,0,15.94,52.43Z"/><path class="cls-8" d="M11.61,3C11.3,3,11.09,3,11,2.9,10.31,2.07,9.9.44,8.45,1.22c-1.62.87-.58,2.35-.21,3.53.67,2.09,2.23,3.71,3.56,5.84C8.94,9.43,6.06,4,6.73,1.73A2.11,2.11,0,0,1,9.36.06,2.56,2.56,0,0,1,11.61,3Z"/><path class="cls-9" d="M7.05,15.31C5.73,15.11,5.18,14,4.12,14c-.77.07-2.23-.65-1.71,1.27.08.32-.08.73-.49.65a1.18,1.18,0,0,1-.7-.58c-.5-1,0-1.76.92-2.23C3.76,12.3,5.93,13.18,7.05,15.31Z"/><path class="cls-10" d="M3.47,7.14,8.26,12A8.82,8.82,0,0,1,3.47,7.14Z"/><path class="cls-11" d="M24.43,26.14c-2.65-4.71-.89-10.86,4.1-12.54a23.45,23.45,0,0,1,5.76-1.53c6-.42,9.79,3.12,9.66,9.18a13,13,0,0,1-1,5.35c-.33.39-.1,1.49-1.18.94-1.77-3.76-4.67-5.15-8.73-4.31a5,5,0,0,1-2.23-.09c-1.49-.39-2.34.2-2.92,1.55a2.65,2.65,0,0,1-2.4,1.88A2.1,2.1,0,0,1,24.43,26.14Z"/><path class="cls-12" d="M17,40.34C7.55,28.63,14.24,10.09,29,7.11c3.45-.7,6.89-.91,10.25.47-5.42-.3-10.62.3-15.32,3.36a21.77,21.77,0,0,0-7.88,26.85C16.45,38.61,16.72,39.49,17,40.34Z"/><path class="cls-13" d="M24.43,26.14l1.26.05c.71,1.26.6,2.72,1,4.07a11.23,11.23,0,0,0,2.63,5c3.46,3.48,7,3.13,9.62-1.05a14,14,0,0,0,1.89-4.56c.18-.79.22-1.68,1.17-2l1-1c1.58,3.87.73,6.78-3,9.1-2.35,1.48-1.07,3.82-.42,5.86.25.81,1.35,1.32.8,2.55A6.11,6.11,0,0,1,38,39.73c-.22-1.22-.54-1.79-1.86-1-2.45,1.5-4.6,0-6.78-.94-.52,2.2-.84,4.4-2.91,5.82-.57-1.06.31-1.5.62-2.07,1.91-3.53,1.43-5.7-1.86-8a4.16,4.16,0,0,1-1.16-6A2,2,0,0,0,24.43,26.14Z"/><path class="cls-1" d="M42,27.6c-.73,2.33-1.06,4.78-2.49,6.9-3.35,5-8.24,5.08-11.58.11a12.55,12.55,0,0,1-2.25-8.42A2.54,2.54,0,0,0,27.54,24c.28-2.13,1.33-2,3.07-1.66a14.21,14.21,0,0,0,7.15-.14c.63-.19,1.41-.52,1.68.38C40,24.46,41.86,25.58,42,27.6Z"/><path class="cls-14" d="M25.53,32.67a3.89,3.89,0,0,1-1.23-4.23C25.28,29.88,25.27,31.14,25.53,32.67Z"/><path class="cls-15" d="M41.48,33.28c.36-1.48.36-2.67,1.36-3.77C43.23,31.05,42.8,32.1,41.48,33.28Z"/></g></g></svg>