<svg xmlns="http://www.w3.org/2000/svg" xmlns:xlink="http://www.w3.org/1999/xlink" viewBox="0 0 169.22 67.39"><defs><style>.cls-1{fill:#414042;}.cls-2{fill:#f1f2f2;}.cls-3{fill:#e6e7e8;}.cls-4{fill:#fff;fill-opacity:0;}.cls-5{fill:#f7f7f6;opacity:0.03;}.cls-10,.cls-11,.cls-12,.cls-13,.cls-14,.cls-15,.cls-16,.cls-17,.cls-18,.cls-19,.cls-20,.cls-21,.cls-22,.cls-23,.cls-24,.cls-25,.cls-26,.cls-27,.cls-28,.cls-29,.cls-30,.cls-31,.cls-32,.cls-33,.cls-34,.cls-5,.cls-6,.cls-7,.cls-8,.cls-9{isolation:isolate;}.cls-6{fill:#f2f1f0;opacity:0.06;}.cls-7{fill:#ecebeb;opacity:0.1;}.cls-8{fill:#e8e6e6;opacity:0.13;}.cls-9{fill:#e3e1e2;opacity:0.16;}.cls-10{fill:#dedddd;opacity:0.19;}.cls-11{fill:#dad8d9;opacity:0.23;}.cls-12{fill:#d5d4d4;opacity:0.26;}.cls-13{fill:#d1d0d0;opacity:0.29;}.cls-14{fill:#cdcbcc;opacity:0.32;}.cls-15{fill:#c9c7c8;opacity:0.35;}.cls-16{fill:#c5c3c4;opacity:0.39;}.cls-17{fill:#c1bfc0;opacity:0.42;}.cls-18{fill:#bdbbbd;opacity:0.45;}.cls-19{fill:#b9b7b9;opacity:0.48;}.cls-20{fill:#b5b4b5;opacity:0.52;}.cls-21{fill:#b1b0b2;opacity:0.55;}.cls-22{fill:#adacae;opacity:0.58;}.cls-23{fill:#aaa9ab;opacity:0.61;}.cls-24{fill:#a6a5a7;opacity:0.65;}.cls-25{fill:#a2a2a4;opacity:0.68;}.cls-26{fill:#9f9ea1;opacity:0.71;}.cls-27{fill:#9b9b9d;opacity:0.74;}.cls-28{fill:#98989a;opacity:0.77;}.cls-29{fill:#949497;opacity:0.81;}.cls-30{fill:#919194;opacity:0.84;}.cls-31{fill:#8d8e91;opacity:0.87;}.cls-32{fill:#8a8b8e;opacity:0.9;}.cls-33{fill:#87888b;opacity:0.94;}.cls-34{fill:#848588;opacity:0.97;}.cls-35{fill:#818285;}.cls-36{fill:url(#linear-gradient);}.cls-37{fill:url(#linear-gradient-2);}.cls-38{fill:url(#linear-gradient-3);}.cls-39{fill:url(#linear-gradient-4);}.cls-40{fill:url(#linear-gradient-5);}.cls-41{fill:url(#linear-gradient-6);}.cls-42{fill:url(#linear-gradient-7);}.cls-43{fill:url(#linear-gradient-8);}.cls-44{fill:url(#linear-gradient-9);}.cls-45{fill:url(#linear-gradient-10);}.cls-46{fill:url(#linear-gradient-11);}.cls-47{fill:url(#linear-gradient-12);}.cls-48{fill:url(#linear-gradient-13);}.cls-49{fill:url(#linear-gradient-14);}</style><linearGradient id="linear-gradient" x1="142.16" y1="1001.46" x2="160.48" y2="1001.46" gradientTransform="matrix(1, 0, 0, -1, 0, 1026.19)" gradientUnits="userSpaceOnUse"><stop offset="0" stop-color="#e34364"/><stop offset="1" stop-color="#dc2048"/></linearGradient><linearGradient id="linear-gradient-2" x1="142.75" y1="1001.46" x2="159.89" y2="1001.46" gradientTransform="matrix(1, 0, 0, -1, 0, 1026.19)" gradientUnits="userSpaceOnUse"><stop offset="0" stop-color="#dc2048"/><stop offset="1" stop-color="#e34364"/></linearGradient><linearGradient id="linear-gradient-3" x1="3.48" y1="1001.46" x2="23.97" y2="1001.46" xlink:href="#linear-gradient"/><linearGradient id="linear-gradient-4" x1="4.07" y1="1001.46" x2="23.39" y2="1001.46" xlink:href="#linear-gradient-2"/><linearGradient id="linear-gradient-5" x1="31.62" y1="1001.44" x2="36.85" y2="1001.44" gradientTransform="matrix(1, 0, 0, -1, 0, 1026.19)" gradientUnits="userSpaceOnUse"><stop offset="0" stop-color="#ffcb05"/><stop offset="1" stop-color="#f8ac1c"/></linearGradient><linearGradient id="linear-gradient-6" x1="32.2" y1="1001.47" x2="36.27" y2="1001.47" gradientTransform="matrix(1, 0, 0, -1, 0, 1026.19)" gradientUnits="userSpaceOnUse"><stop offset="0" stop-color="#f8ac1c"/><stop offset="1" stop-color="#ffcb05"/></linearGradient><linearGradient id="linear-gradient-7" x1="102.19" y1="1001.44" x2="107.42" y2="1001.44" gradientTransform="matrix(1, 0, 0, -1, 0, 1026.19)" gradientUnits="userSpaceOnUse"><stop offset="0" stop-color="#f47a51"/><stop offset="1" stop-color="#f15b2b"/></linearGradient><linearGradient id="linear-gradient-8" x1="102.77" y1="1001.47" x2="106.84" y2="1001.47" gradientTransform="matrix(1, 0, 0, -1, 0, 1026.19)" gradientUnits="userSpaceOnUse"><stop offset="0" stop-color="#f15b2b"/><stop offset="1" stop-color="#f47a51"/></linearGradient><linearGradient id="linear-gradient-9" x1="115.95" y1="1001.46" x2="134.24" y2="1001.46" xlink:href="#linear-gradient-5"/><linearGradient id="linear-gradient-10" x1="116.53" y1="1001.46" x2="133.68" y2="1001.46" xlink:href="#linear-gradient-6"/><linearGradient id="linear-gradient-11" x1="45.01" y1="1001.46" x2="65.28" y2="1001.46" gradientTransform="matrix(1, 0, 0, -1, 0, 1026.19)" gradientUnits="userSpaceOnUse"><stop offset="0" stop-color="#27ace3"/><stop offset="1" stop-color="#1e94d2"/></linearGradient><linearGradient id="linear-gradient-12" x1="45.59" y1="1001.46" x2="64.7" y2="1001.46" gradientTransform="matrix(1, 0, 0, -1, 0, 1026.19)" gradientUnits="userSpaceOnUse"><stop offset="0" stop-color="#1e94d2"/><stop offset="1" stop-color="#27ace3"/></linearGradient><linearGradient id="linear-gradient-13" x1="73.55" y1="1001.46" x2="93.83" y2="1001.46" xlink:href="#linear-gradient-11"/><linearGradient id="linear-gradient-14" x1="74.13" y1="1001.46" x2="93.24" y2="1001.46" xlink:href="#linear-gradient-12"/></defs><title>Asset 1</title><g id="Layer_2" data-name="Layer 2"><g id="Layer_1-2" data-name="Layer 1"><g id="Layer_2-2" data-name="Layer 2"><g id="Layer_1-2-2" data-name="Layer 1-2"><path class="cls-1" d="M169,10.45a1.87,1.87,0,0,1-2.44,1h0a1.23,1.23,0,0,1-.23-.11l-2.78,4.19a.65.65,0,0,1-.76.25l-7.06-2.75v0l-.92-.39-.93-.37h0l-7-2.93a.64.64,0,0,1-.38-.7l.87-5-.24-.08a1.87,1.87,0,1,1,2.17-.53l1.69,1.54a.62.62,0,0,0,.64.12l5.9-2.09a1.89,1.89,0,1,1,2.52.89,1.42,1.42,0,0,1-.29.1l2.76,5.53a.63.63,0,0,0,.55.35l2.29.06a1.59,1.59,0,0,1,.14-.56,1.87,1.87,0,0,1,2.37-1.2A1.84,1.84,0,0,1,169,10.46Z"/><path class="cls-2" d="M150.83,41.47c-3.93,0-9-1.39-11.25-5.36a6.7,6.7,0,0,1-.73-4.86,6.35,6.35,0,0,1,2.75-4l.11-.07a9.5,9.5,0,0,1-3-7.29,11.48,11.48,0,0,1,8.5-11.31,15.58,15.58,0,0,1,4.4-.61c3.88,0,8.83,1.39,11.12,5.35a6.7,6.7,0,0,1,.73,4.86,6.37,6.37,0,0,1-2.64,3.9A9.52,9.52,0,0,1,164,29.52a11.47,11.47,0,0,1-8.56,11.29,16.11,16.11,0,0,1-4.57.63Z"/><path class="cls-3" d="M150.83,40.85c-3.78,0-8.58-1.33-10.75-5.06a6,6,0,0,1-.67-4.39,5.76,5.76,0,0,1,2.49-3.61,5,5,0,0,1,.89-.46,8.85,8.85,0,0,1-3.53-7.42,10.89,10.89,0,0,1,8.08-10.72,15.22,15.22,0,0,1,4.24-.58c3.71,0,8.46,1.33,10.66,5.06a6,6,0,0,1,.63,4.39,5.59,5.59,0,0,1-3.12,4,8.94,8.94,0,0,1,3.63,7.53,10.91,10.91,0,0,1-8.14,10.7,15.7,15.7,0,0,1-4.41.61Z"/><path class="cls-4" d="M153.7,40.76c-3.36,0-6.86-1.17-8.27-3.6a2.84,2.84,0,0,1,.86-3.81,2.53,2.53,0,0,1,3.51.77.41.41,0,0,1,.07.11c.59.68,3.91,1.57,6.49.56,1.56-.61,1.77-1.51,1.77-2.31s-1.47-1.39-4.54-2.17c-3.4-.83-8.53-2.1-8.53-7.46a7.86,7.86,0,0,1,6-7.78,13.37,13.37,0,0,1,6.56-.11,7.79,7.79,0,0,1,5,3.24,2.85,2.85,0,0,1-.87,3.79,2.55,2.55,0,0,1-3.51-.77l-.07-.12c-.54-.66-3.67-1.53-6.12-.6a2.29,2.29,0,0,0-1.78,2.35c0,.93,1.95,1.48,4.5,2.1,3.42.85,8.58,2.12,8.58,7.53a7.86,7.86,0,0,1-6,7.75A12.82,12.82,0,0,1,153.7,40.76Z"/><path class="cls-5" d="M150.92,15a11.75,11.75,0,0,1,3.44-.46,13.1,13.1,0,0,1,3.12.35,7.75,7.75,0,0,1,5,3.25,2.88,2.88,0,0,1,.33,2,2.71,2.71,0,0,1-1.2,1.78,2.55,2.55,0,0,1-1.28.41A2.59,2.59,0,0,1,158.08,21c-.38-.47-2-1-3.84-1a6.57,6.57,0,0,0-2.28.41,2.28,2.28,0,0,0-1.78,2.35c0,.93,1.94,1.48,4.5,2.11,3.41.84,8.57,2.11,8.57,7.52a7.85,7.85,0,0,1-6,7.75,13.46,13.46,0,0,1-3.62.5c-3.38,0-6.87-1.19-8.27-3.61a2.82,2.82,0,0,1-.33-2,2.76,2.76,0,0,1,1.19-1.78,2.51,2.51,0,0,1,3.57.87,6.48,6.48,0,0,0,4,1,6.88,6.88,0,0,0,2.5-.46c1.57-.61,1.78-1.51,1.78-2.32s-1.47-1.39-4.55-2.17c-3.4-.84-8.52-2.1-8.52-7.46A7.83,7.83,0,0,1,150.92,15Z"/><path class="cls-6" d="M150.83,14.92a12,12,0,0,1,3.43-.47,13.73,13.73,0,0,1,3.13.36,7.73,7.73,0,0,1,5,3.24,2.84,2.84,0,0,1-.86,3.78,2.54,2.54,0,0,1-1.29.4,2.58,2.58,0,0,1-2.27-1.3,6.08,6.08,0,0,0-3.84-1,6.85,6.85,0,0,0-2.29.4,2.3,2.3,0,0,0-1.79,2.36c0,.93,1.95,1.49,4.51,2.12,3.41.84,8.57,2.11,8.57,7.51a7.86,7.86,0,0,1-6,7.75,13.08,13.08,0,0,1-3.63.49c-3.38,0-6.86-1.19-8.26-3.6a2.82,2.82,0,0,1-.33-2,2.76,2.76,0,0,1,1.19-1.78,2.48,2.48,0,0,1,1.29-.4,2.57,2.57,0,0,1,2.28,1.28,6.56,6.56,0,0,0,4,1,7.16,7.16,0,0,0,2.51-.47c1.57-.61,1.78-1.52,1.78-2.31s-1.46-1.42-4.55-2.18c-3.39-.83-8.52-2.1-8.52-7.45A7.82,7.82,0,0,1,150.83,14.92Z"/><path class="cls-7" d="M150.73,14.82a12.15,12.15,0,0,1,3.44-.47,13.64,13.64,0,0,1,3.12.36,7.75,7.75,0,0,1,5,3.24,2.93,2.93,0,0,1,.33,2,2.69,2.69,0,0,1-1.2,1.77,2.46,2.46,0,0,1-1.28.41,2.57,2.57,0,0,1-2.28-1.28,6.17,6.17,0,0,0-3.83-1,6.67,6.67,0,0,0-2.3.4A2.31,2.31,0,0,0,150,22.59c0,.93,2,1.49,4.51,2.13,3.41.84,8.57,2.11,8.57,7.5A7.88,7.88,0,0,1,157,40a13.08,13.08,0,0,1-3.63.49c-3.4,0-6.86-1.2-8.26-3.59a2.91,2.91,0,0,1-.33-2A2.76,2.76,0,0,1,146,33.1a2.48,2.48,0,0,1,1.29-.4A2.57,2.57,0,0,1,149.57,34a6.53,6.53,0,0,0,4,1,6.94,6.94,0,0,0,2.51-.47c1.57-.61,1.78-1.51,1.78-2.31s-1.46-1.39-4.55-2.18c-3.4-.84-8.52-2.1-8.52-7.45A7.87,7.87,0,0,1,150.73,14.82Z"/><path class="cls-8" d="M150.64,14.74a12.15,12.15,0,0,1,3.44-.47,13.64,13.64,0,0,1,3.12.36,7.7,7.7,0,0,1,5,3.24,2.82,2.82,0,0,1,.32,2,2.66,2.66,0,0,1-1.18,1.77,2.45,2.45,0,0,1-1.29.4,2.56,2.56,0,0,1-2.27-1.28,6.1,6.1,0,0,0-3.83-1,6.55,6.55,0,0,0-2.32.4,2.3,2.3,0,0,0-1.79,2.37c0,.93,1.94,1.49,4.51,2.12,3.41.85,8.57,2.12,8.57,7.51a7.87,7.87,0,0,1-6,7.74,12.94,12.94,0,0,1-3.61.49c-3.42,0-6.87-1.21-8.26-3.59a2.9,2.9,0,0,1-.33-2A2.75,2.75,0,0,1,146,33a2.48,2.48,0,0,1,1.29-.4,2.57,2.57,0,0,1,2.27,1.27,6.5,6.5,0,0,0,4,1,7.22,7.22,0,0,0,2.52-.47c1.58-.61,1.79-1.53,1.79-2.31s-1.46-1.43-4.56-2.19c-3.39-.83-8.52-2.1-8.52-7.44A7.8,7.8,0,0,1,150.64,14.74Z"/><path class="cls-9" d="M150.55,14.64a12.46,12.46,0,0,1,3.44-.46,12.61,12.61,0,0,1,3.12.36,7.66,7.66,0,0,1,5,3.24,2.88,2.88,0,0,1,.33,2,2.72,2.72,0,0,1-1.19,1.76,2.45,2.45,0,0,1-1.28.4,2.54,2.54,0,0,1-2.26-1.28,6.3,6.3,0,0,0-3.85-1,6.73,6.73,0,0,0-2.31.41,2.31,2.31,0,0,0-1.8,2.37c0,.93,1.95,1.5,4.52,2.14,3.41.83,8.56,2.1,8.56,7.49a7.87,7.87,0,0,1-6,7.74,13.06,13.06,0,0,1-3.62.49c-3.42,0-6.87-1.21-8.25-3.59a2.82,2.82,0,0,1-.33-2,2.74,2.74,0,0,1,1.18-1.76,2.49,2.49,0,0,1,3.55.87,6.58,6.58,0,0,0,4,1,7.22,7.22,0,0,0,2.52-.47c1.58-.61,1.79-1.53,1.79-2.31s-1.46-1.43-4.56-2.19c-3.39-.84-8.52-2.1-8.52-7.44A7.9,7.9,0,0,1,150.55,14.64Z"/><path class="cls-10" d="M150.46,14.56a12.08,12.08,0,0,1,3.43-.47,13.79,13.79,0,0,1,3.13.36,7.67,7.67,0,0,1,5,3.24,2.82,2.82,0,0,1,.33,2,2.76,2.76,0,0,1-1.18,1.76,2.44,2.44,0,0,1-1.29.39,2.53,2.53,0,0,1-2.25-1.27,6.22,6.22,0,0,0-3.84-1,7,7,0,0,0-2.32.4,2.32,2.32,0,0,0-1.79,2.38c0,.93,1.94,1.5,4.51,2.14,3.41.84,8.56,2.11,8.56,7.49a7.84,7.84,0,0,1-6,7.73,13.06,13.06,0,0,1-3.62.49c-3.43,0-6.87-1.21-8.25-3.59a2.79,2.79,0,0,1-.32-2,2.73,2.73,0,0,1,1.17-1.76,2.51,2.51,0,0,1,1.3-.4,2.55,2.55,0,0,1,2.24,1.27,6.65,6.65,0,0,0,4,1,7.22,7.22,0,0,0,2.53-.46c1.58-.62,1.79-1.54,1.79-2.32s-1.46-1.43-4.56-2.2c-3.34-.86-8.48-2.12-8.48-7.46A7.81,7.81,0,0,1,150.46,14.56Z"/><path class="cls-11" d="M150.37,14.46A12.39,12.39,0,0,1,153.8,14a12.61,12.61,0,0,1,3.12.36,7.63,7.63,0,0,1,5,3.24,2.85,2.85,0,0,1,.32,2,2.69,2.69,0,0,1-1.18,1.72,2.47,2.47,0,0,1-3.44-.7,1.4,1.4,0,0,1-.1-.16,6.19,6.19,0,0,0-3.85-1,6.72,6.72,0,0,0-2.31.4,2.33,2.33,0,0,0-1.8,2.39c0,.92,1.94,1.5,4.52,2.13,3.41.84,8.56,2.11,8.56,7.49a7.87,7.87,0,0,1-6,7.73,13.06,13.06,0,0,1-3.62.49c-3.44,0-6.87-1.22-8.25-3.59a2.85,2.85,0,0,1-.32-2,2.72,2.72,0,0,1,1.18-1.75,2.5,2.5,0,0,1,3.55.86,6.52,6.52,0,0,0,4,1,7.09,7.09,0,0,0,2.53-.47c1.58-.62,1.79-1.53,1.79-2.31s-1.46-1.43-4.57-2.2c-3.38-.84-8.5-2.1-8.5-7.41A7.84,7.84,0,0,1,150.37,14.46Z"/><path class="cls-12" d="M150.27,14.37a12.51,12.51,0,0,1,3.44-.46,13.64,13.64,0,0,1,3.12.36,7.65,7.65,0,0,1,5,3.24,2.85,2.85,0,0,1,.33,1.94A2.72,2.72,0,0,1,161,21.2a2.51,2.51,0,0,1-3.53-.88,6.19,6.19,0,0,0-3.84-1,6.72,6.72,0,0,0-2.31.4,2.33,2.33,0,0,0-1.8,2.39c0,.95,1.93,1.51,4.52,2.14,3.4.84,8.55,2.11,8.55,7.49a7.85,7.85,0,0,1-6,7.72,13.06,13.06,0,0,1-3.62.49c-3.45,0-6.87-1.23-8.24-3.58a2.77,2.77,0,0,1-.32-2,2.71,2.71,0,0,1,1.17-1.74,2.4,2.4,0,0,1,1.3-.38,2.55,2.55,0,0,1,2.24,1.26,6.63,6.63,0,0,0,4,1,6.88,6.88,0,0,0,2.54-.46,2.29,2.29,0,0,0,1.79-2.32c0-.92-1.45-1.43-4.57-2.2-3.38-.83-8.5-2.1-8.5-7.41A7.8,7.8,0,0,1,150.27,14.37Z"/><path class="cls-13" d="M150.18,14.28a12.46,12.46,0,0,1,3.44-.46,12.61,12.61,0,0,1,3.12.36,7.6,7.6,0,0,1,5,3.24,2.8,2.8,0,0,1,.33,2,2.76,2.76,0,0,1-1.18,1.74,2.45,2.45,0,0,1-1.29.4,2.55,2.55,0,0,1-2.23-1.27,6.3,6.3,0,0,0-3.84-1,6.79,6.79,0,0,0-2.32.41,2.32,2.32,0,0,0-1.8,2.39c0,1,1.94,1.51,4.53,2.15,3.4.84,8.54,2.11,8.54,7.48a7.83,7.83,0,0,1-6,7.71,12.59,12.59,0,0,1-3.61.5c-3.47,0-6.88-1.24-8.24-3.58a2.82,2.82,0,0,1-.32-2,2.7,2.7,0,0,1,1.17-1.77,2.48,2.48,0,0,1,3.52.87c.42.49,2.12,1.05,4,1a7.1,7.1,0,0,0,2.54-.47,2.31,2.31,0,0,0,1.8-2.35c0-.92-1.45-1.43-4.58-2.21-3.38-.83-8.49-2.09-8.49-7.41A7.79,7.79,0,0,1,150.18,14.28Z"/><path class="cls-14" d="M150.09,14.19a12.44,12.44,0,0,1,3.43-.46,13.79,13.79,0,0,1,3.13.36,7.66,7.66,0,0,1,5,3.24,2.75,2.75,0,0,1,.31,2,2.63,2.63,0,0,1-1.18,1.7,2.48,2.48,0,0,1-1.29.4,2.53,2.53,0,0,1-2.23-1.27,6.27,6.27,0,0,0-3.84-1,6.83,6.83,0,0,0-2.32.41,2.34,2.34,0,0,0-1.8,2.4c0,1,1.93,1.51,4.53,2.15,3.4.84,8.54,2.11,8.54,7.48a7.84,7.84,0,0,1-6,7.71,12.94,12.94,0,0,1-3.61.49c-3.47,0-6.87-1.24-8.23-3.58a2.74,2.74,0,0,1-.32-2,2.71,2.71,0,0,1,1.17-1.74,2.43,2.43,0,0,1,1.28-.39,2.5,2.5,0,0,1,2.23,1.26,6.46,6.46,0,0,0,4,1,6.94,6.94,0,0,0,2.55-.46,2.31,2.31,0,0,0,1.8-2.35c0-.93-1.45-1.44-4.57-2.21-3.39-.84-8.5-2.1-8.5-7.42A7.79,7.79,0,0,1,150.09,14.19Z"/><path class="cls-15" d="M150,14.1a12.44,12.44,0,0,1,3.43-.46,13.64,13.64,0,0,1,3.12.36,7.66,7.66,0,0,1,5,3.22,2.79,2.79,0,0,1,.32,2,2.64,2.64,0,0,1-1.17,1.72,2.45,2.45,0,0,1-1.29.4,2.54,2.54,0,0,1-2.22-1.26,6.22,6.22,0,0,0-3.84-1,6.9,6.9,0,0,0-2.34.41,2.34,2.34,0,0,0-1.81,2.4c0,1,1.94,1.52,4.54,2.16,3.4.84,8.54,2.11,8.54,7.47a7.81,7.81,0,0,1-6,7.7,12.59,12.59,0,0,1-3.61.5c-3.48,0-6.87-1.25-8.22-3.58a2.74,2.74,0,0,1-.32-2,2.65,2.65,0,0,1,1.16-1.73,2.48,2.48,0,0,1,1.29-.4,2.54,2.54,0,0,1,2.22,1.26c.42.5,2.13,1.06,4,1.05a7.38,7.38,0,0,0,2.55-.47,2.32,2.32,0,0,0,1.81-2.36c0-.92-1.45-1.44-4.58-2.22-3.37-.83-8.47-2.09-8.47-7.41A7.78,7.78,0,0,1,150,14.1Z"/><path class="cls-16" d="M149.91,14a12,12,0,0,1,3.43-.46,13.1,13.1,0,0,1,3.12.35,7.7,7.7,0,0,1,5,3.22,2.84,2.84,0,0,1,.31,2,2.66,2.66,0,0,1-1.16,1.74,2.47,2.47,0,0,1-1.29.39A2.52,2.52,0,0,1,157.1,20c-.4-.49-2-1-3.84-1a6.45,6.45,0,0,0-2.34.41,2.33,2.33,0,0,0-1.81,2.4c0,1,1.93,1.52,4.53,2.17,3.4.81,8.53,2.08,8.53,7.44a7.82,7.82,0,0,1-6,7.7,12.94,12.94,0,0,1-3.61.49c-3.5,0-6.88-1.26-8.22-3.57a2.77,2.77,0,0,1-.32-2,2.69,2.69,0,0,1,1.16-1.72,2.38,2.38,0,0,1,1.29-.39,2.49,2.49,0,0,1,2.24,1.25c.42.5,2.13,1.06,4,1a7,7,0,0,0,2.56-.46c1.6-.63,1.81-1.56,1.81-2.36s-1.45-1.45-4.59-2.22c-3.37-.84-8.48-2.1-8.48-7.42A7.75,7.75,0,0,1,149.91,14Z"/><path class="cls-17" d="M149.82,13.92a12.37,12.37,0,0,1,3.42-.46,13.73,13.73,0,0,1,3.13.36,7.68,7.68,0,0,1,5,3.21,2.78,2.78,0,0,1,.31,2,2.67,2.67,0,0,1-1.16,1.71,2.45,2.45,0,0,1-1.29.4,2.49,2.49,0,0,1-2.2-1.26,6.28,6.28,0,0,0-3.85-1,6.9,6.9,0,0,0-2.34.41A2.35,2.35,0,0,0,149,21.64c0,1,1.93,1.52,4.54,2.17,3.4.84,8.53,2.1,8.53,7.46a7.79,7.79,0,0,1-6,7.69,12.52,12.52,0,0,1-3.6.5c-3.51,0-6.88-1.27-8.23-3.57a2.87,2.87,0,0,1-.31-2,2.67,2.67,0,0,1,1.16-1.71,2.45,2.45,0,0,1,1.29-.4,2.52,2.52,0,0,1,2.21,1.26c.42.5,2.13,1.06,4,1a7,7,0,0,0,2.56-.46A2.32,2.32,0,0,0,157,31.27c0-.93-1.45-1.46-4.59-2.23-3.37-.83-8.48-2.09-8.48-7.41A7.78,7.78,0,0,1,149.82,13.92Z"/><path class="cls-18" d="M149.73,13.83a12.33,12.33,0,0,1,3.42-.47,13.79,13.79,0,0,1,3.13.36,7.69,7.69,0,0,1,5,3.21,2.79,2.79,0,0,1,.32,2,2.71,2.71,0,0,1-1.16,1.71,2.38,2.38,0,0,1-1.29.39,2.52,2.52,0,0,1-2.21-1.26c-.4-.49-2-1.05-3.84-1a6.5,6.5,0,0,0-2.35.41,2.35,2.35,0,0,0-1.82,2.41c0,1,1.93,1.53,4.55,2.18,3.39.83,8.52,2.1,8.52,7.45a7.8,7.8,0,0,1-6,7.69,13,13,0,0,1-3.61.51c-3.52,0-6.87-1.27-8.21-3.57a2.79,2.79,0,0,1-.32-2A2.67,2.67,0,0,1,145,32.11a2.44,2.44,0,0,1,1.29-.39,2.53,2.53,0,0,1,2.2,1.25c.43.5,2.13,1.06,4,1.05a7.27,7.27,0,0,0,2.57-.47,2.34,2.34,0,0,0,1.82-2.37c0-.93-1.46-1.45-4.6-2.23-3.38-.84-8.48-2.09-8.48-7.42A7.78,7.78,0,0,1,149.73,13.83Z"/><path class="cls-19" d="M149.66,13.74a12.37,12.37,0,0,1,3.42-.46,13.79,13.79,0,0,1,3.13.36,7.68,7.68,0,0,1,5,3.2,2.85,2.85,0,0,1,.31,2,2.67,2.67,0,0,1-1.18,1.69,2.39,2.39,0,0,1-1.29.4,2.49,2.49,0,0,1-2.2-1.26c-.4-.49-2.05-1-3.84-1a7.06,7.06,0,0,0-2.36.41,2.36,2.36,0,0,0-1.82,2.42c0,1,1.93,1.53,4.55,2.18,3.39.84,8.52,2.1,8.52,7.45a7.8,7.8,0,0,1-6,7.69,13.32,13.32,0,0,1-3.61.49c-3.52,0-6.88-1.28-8.21-3.57a2.79,2.79,0,0,1-.31-2,2.67,2.67,0,0,1,1.15-1.7,2.46,2.46,0,0,1,3.41.73l.08.12c.43.5,2.13,1.06,4,1a7.13,7.13,0,0,0,2.58-.46,2.33,2.33,0,0,0,1.81-2.37c0-.93-1.45-1.47-4.59-2.24-3.38-.83-8.48-2.09-8.48-7.41A7.79,7.79,0,0,1,149.66,13.74Z"/><path class="cls-20" d="M149.54,13.65a12.45,12.45,0,0,1,3.43-.47,13.64,13.64,0,0,1,3.12.36,7.69,7.69,0,0,1,5,3.2,2.85,2.85,0,0,1,.31,2,2.67,2.67,0,0,1-1.15,1.7,2.46,2.46,0,0,1-3.4-.73l-.08-.13c-.41-.5-2.06-1-3.85-1a7.07,7.07,0,0,0-2.37.41,2.37,2.37,0,0,0-1.82,2.43c0,1,1.93,1.53,4.55,2.18,3.4.83,8.52,2.1,8.52,7.45a7.77,7.77,0,0,1-6,7.67,12.64,12.64,0,0,1-3.61.5c-3.54,0-6.88-1.29-8.2-3.57a2.79,2.79,0,0,1-.32-2,2.65,2.65,0,0,1,1.15-1.69,2.34,2.34,0,0,1,1.3-.42,2.48,2.48,0,0,1,2.18,1.24c.44.51,2.14,1.07,4,1a7.15,7.15,0,0,0,2.59-.46A2.35,2.35,0,0,0,156.71,31c0-.93-1.45-1.47-4.6-2.24-3.38-.81-8.47-2.07-8.47-7.36A7.77,7.77,0,0,1,149.54,13.65Z"/><path class="cls-21" d="M149.45,13.56a12,12,0,0,1,3.42-.46,13.19,13.19,0,0,1,3.13.36,7.67,7.67,0,0,1,5,3.19,2.8,2.8,0,0,1,.31,2,2.63,2.63,0,0,1-1.15,1.69,2.45,2.45,0,0,1-1.29.4,2.49,2.49,0,0,1-2.18-1.25c-.41-.5-2.06-1.06-3.85-1a6.55,6.55,0,0,0-2.36.41,2.37,2.37,0,0,0-1.83,2.43c0,1,1.92,1.54,4.56,2.19,3.39.83,8.53,2.09,8.53,7.43a7.79,7.79,0,0,1-6,7.68,12.87,12.87,0,0,1-3.6.49c-3.55,0-6.88-1.3-8.2-3.57a2.77,2.77,0,0,1-.32-2,2.67,2.67,0,0,1,1.15-1.7,2.47,2.47,0,0,1,1.29-.39,2.51,2.51,0,0,1,2.18,1.25,6.49,6.49,0,0,0,4,1,7.15,7.15,0,0,0,2.59-.46,2.36,2.36,0,0,0,1.83-2.39c0-.92-1.45-1.46-4.61-2.24-3.37-.83-8.47-2.09-8.47-7.38A7.73,7.73,0,0,1,149.45,13.56Z"/><path class="cls-22" d="M149.36,13.47a12,12,0,0,1,3.42-.47,13.64,13.64,0,0,1,3.12.36,7.68,7.68,0,0,1,5,3.2,2.74,2.74,0,0,1,.31,2A2.64,2.64,0,0,1,160,20.22a2.45,2.45,0,0,1-3.39-.72l-.08-.13c-.41-.51-2.06-1.07-3.84-1.05a6.66,6.66,0,0,0-2.38.41,2.39,2.39,0,0,0-1.85,2.43c0,1,1.93,1.54,4.56,2.19,3.39.84,8.52,2.1,8.52,7.44a7.78,7.78,0,0,1-6,7.67A13.38,13.38,0,0,1,152,39c-3.56,0-6.88-1.31-8.2-3.57a2.79,2.79,0,0,1-.31-2,2.63,2.63,0,0,1,1.15-1.68,2.36,2.36,0,0,1,1.29-.39,2.47,2.47,0,0,1,2.17,1.24c.44.51,2.14,1.07,4,1.06a7.42,7.42,0,0,0,2.59-.47,2.37,2.37,0,0,0,1.83-2.38c0-.93-1.45-1.48-4.61-2.26-3.38-.83-8.47-2.09-8.47-7.38A7.79,7.79,0,0,1,149.36,13.47Z"/><path class="cls-23" d="M149.27,13.38a12,12,0,0,1,3.42-.46,12.61,12.61,0,0,1,3.12.36,7.64,7.64,0,0,1,5,3.19,2.74,2.74,0,0,1,.31,2,2.6,2.6,0,0,1-1.14,1.67,2.37,2.37,0,0,1-1.29.4,2.5,2.5,0,0,1-2.17-1.25c-.41-.5-2.06-1.06-3.84-1.05a6.66,6.66,0,0,0-2.38.41,2.4,2.4,0,0,0-1.86,2.44c0,1,1.93,1.54,4.57,2.2,3.39.83,8.51,2.1,8.51,7.41a7.76,7.76,0,0,1-6,7.66,12.52,12.52,0,0,1-3.6.5c-3.57,0-6.89-1.31-8.2-3.56a2.84,2.84,0,0,1-.31-2,2.7,2.7,0,0,1,1.15-1.67,2.47,2.47,0,0,1,1.29-.39A2.51,2.51,0,0,1,148,32.48c.44.51,2.14,1.07,4,1.06a7.2,7.2,0,0,0,2.6-.46,2.36,2.36,0,0,0,1.83-2.4c0-.95-1.45-1.47-4.63-2.25-3.37-.83-8.46-2.09-8.46-7.37A7.81,7.81,0,0,1,149.27,13.38Z"/><path class="cls-24" d="M149.2,13.29a12,12,0,0,1,3.41-.47,13.73,13.73,0,0,1,3.13.36,7.7,7.7,0,0,1,5,3.19,2.85,2.85,0,0,1,.31,2A2.66,2.66,0,0,1,159.85,20a2.44,2.44,0,0,1-1.29.39,2.47,2.47,0,0,1-2.16-1.25,6.12,6.12,0,0,0-3.85-1.05,6.66,6.66,0,0,0-2.38.41A2.4,2.4,0,0,0,148.31,21c0,1,1.93,1.55,4.57,2.2,3.39.84,8.51,2.1,8.51,7.42a7.76,7.76,0,0,1-5.95,7.66,12.92,12.92,0,0,1-3.6.49c-3.57,0-6.88-1.29-8.2-3.53a2.74,2.74,0,0,1-.31-2,2.62,2.62,0,0,1,1.14-1.67,2.44,2.44,0,0,1,1.29-.39,2.5,2.5,0,0,1,2.16,1.24,6.46,6.46,0,0,0,4,1.06,7.29,7.29,0,0,0,2.61-.46,2.39,2.39,0,0,0,1.85-2.4c0-1-1.45-1.48-4.63-2.26-3.37-.83-8.46-2.09-8.46-7.37A7.77,7.77,0,0,1,149.2,13.29Z"/><path class="cls-25" d="M149.08,13.19a12.42,12.42,0,0,1,3.42-.46,13.73,13.73,0,0,1,3.13.36,7.65,7.65,0,0,1,5,3.19,2.82,2.82,0,0,1,.31,2,2.6,2.6,0,0,1-1.14,1.67,2.36,2.36,0,0,1-1.29.39,2.48,2.48,0,0,1-2.16-1.24c-.41-.51-2.06-1.06-3.84-1.05a6.75,6.75,0,0,0-2.39.41,2.4,2.4,0,0,0-1.85,2.45c0,1,1.92,1.55,4.57,2.2,3.38.84,8.5,2.1,8.5,7.41a7.75,7.75,0,0,1-5.95,7.66,12.87,12.87,0,0,1-3.6.49c-3.59,0-6.88-1.32-8.18-3.55a2.74,2.74,0,0,1-.31-2,2.65,2.65,0,0,1,1.14-1.67,2.34,2.34,0,0,1,1.28-.38,2.46,2.46,0,0,1,2.16,1.23,6.44,6.44,0,0,0,4,1.07,7.26,7.26,0,0,0,2.61-.47,2.39,2.39,0,0,0,1.86-2.4c0-1-1.45-1.48-4.64-2.27-3.37-.83-8.45-2.08-8.45-7.36A7.78,7.78,0,0,1,149.08,13.19Z"/><path class="cls-26" d="M149,13.11a12,12,0,0,1,3.43-.47,13.55,13.55,0,0,1,3.11.36,7.66,7.66,0,0,1,4.95,3.19,2.71,2.71,0,0,1,.31,2,2.6,2.6,0,0,1-1.14,1.66,2.36,2.36,0,0,1-1.29.39A2.48,2.48,0,0,1,156.21,19c-.41-.51-2.06-1.07-3.84-1.06a6.77,6.77,0,0,0-2.4.41,2.4,2.4,0,0,0-1.85,2.45c0,1,1.92,1.56,4.57,2.21,3.39.84,8.51,2.1,8.51,7.42a7.76,7.76,0,0,1-5.95,7.65,12.87,12.87,0,0,1-3.6.49c-3.6,0-6.89-1.32-8.18-3.55a2.74,2.74,0,0,1-.31-2,2.6,2.6,0,0,1,1.14-1.66,2.44,2.44,0,0,1,1.29-.39,2.49,2.49,0,0,1,2.15,1.24c.44.52,2.14,1.07,4,1.06a7,7,0,0,0,2.61-.46,2.4,2.4,0,0,0,1.86-2.41c0-1-1.45-1.48-4.64-2.27-3.36-.83-8.45-2.08-8.45-7.36A7.76,7.76,0,0,1,149,13.11Z"/><path class="cls-27" d="M148.9,13a12.42,12.42,0,0,1,3.42-.46,13.64,13.64,0,0,1,3.12.36,7.66,7.66,0,0,1,4.95,3.18,2.79,2.79,0,0,1,.3,2,2.6,2.6,0,0,1-1.13,1.65,2.36,2.36,0,0,1-1.29.39,2.44,2.44,0,0,1-2.12-1.24c-.43-.52-2.07-1.07-3.85-1.06a6.56,6.56,0,0,0-2.4.42,2.39,2.39,0,0,0-1.85,2.45c0,1,1.91,1.56,4.57,2.22,3.39.83,8.5,2.09,8.5,7.41A7.73,7.73,0,0,1,155.18,38a13,13,0,0,1-3.61.5c-3.62,0-6.89-1.33-8.18-3.55a2.74,2.74,0,0,1-.31-2,2.64,2.64,0,0,1,1.13-1.65,2.38,2.38,0,0,1,1.29-.39,2.49,2.49,0,0,1,2.15,1.23,6.38,6.38,0,0,0,4,1.07,7.34,7.34,0,0,0,2.62-.46,2.4,2.4,0,0,0,1.85-2.42c0-1-1.44-1.49-4.63-2.27-3.36-.83-8.45-2.09-8.45-7.36A7.75,7.75,0,0,1,148.9,13Z"/><path class="cls-28" d="M148.81,12.92a12.32,12.32,0,0,1,3.42-.46,13.64,13.64,0,0,1,3.12.36A7.66,7.66,0,0,1,160.29,16a2.74,2.74,0,0,1,.3,2,2.58,2.58,0,0,1-1.13,1.64,2.36,2.36,0,0,1-1.29.39A2.49,2.49,0,0,1,156,18.78c-.42-.52-2.06-1.07-3.84-1.06a6.64,6.64,0,0,0-2.41.41,2.41,2.41,0,0,0-1.85,2.46c0,1,1.92,1.56,4.58,2.22,3.39.83,8.5,2.09,8.5,7.41a7.74,7.74,0,0,1-5.94,7.64,12.88,12.88,0,0,1-3.6.5c-3.63,0-6.89-1.34-8.18-3.55a2.77,2.77,0,0,1-.3-2,2.62,2.62,0,0,1,1.13-1.66,2.46,2.46,0,0,1,1.29-.38A2.49,2.49,0,0,1,147.55,32a6.47,6.47,0,0,0,4,1.07,7.27,7.27,0,0,0,2.62-.46A2.4,2.4,0,0,0,156,30.22c0-1-1.45-1.5-4.64-2.28-3.36-.83-8.44-2.09-8.44-7.35A7.75,7.75,0,0,1,148.81,12.92Z"/><path class="cls-29" d="M148.73,12.83a12.37,12.37,0,0,1,3.42-.46,13.64,13.64,0,0,1,3.12.36,7.64,7.64,0,0,1,4.94,3.18,2.76,2.76,0,0,1,.3,2,2.63,2.63,0,0,1-1.12,1.64,2.44,2.44,0,0,1-1.29.39A2.48,2.48,0,0,1,156,18.67c-.42-.51-2.06-1.07-3.84-1.06a6.82,6.82,0,0,0-2.41.41,2.42,2.42,0,0,0-1.85,2.47c0,1,1.91,1.56,4.58,2.22,3.38.84,8.49,2.1,8.49,7.42A7.74,7.74,0,0,1,155,37.76a12.86,12.86,0,0,1-3.59.5c-3.64,0-6.89-1.35-8.17-3.55a2.71,2.71,0,0,1-.3-2,2.57,2.57,0,0,1,1.12-1.64,2.36,2.36,0,0,1,1.29-.39,2.46,2.46,0,0,1,2.13,1.23,6.44,6.44,0,0,0,4,1.07,7.4,7.4,0,0,0,2.63-.46,2.4,2.4,0,0,0,1.85-2.42c0-1-1.44-1.5-4.63-2.29-3.36-.83-8.44-2.08-8.44-7.34A7.68,7.68,0,0,1,148.73,12.83Z"/><path class="cls-30" d="M148.63,12.74a12.3,12.3,0,0,1,3.41-.46,13.64,13.64,0,0,1,3.12.36,7.68,7.68,0,0,1,4.94,3.18,2.75,2.75,0,0,1,.3,2,2.65,2.65,0,0,1-1.13,1.64,2.43,2.43,0,0,1-1.29.38,2.46,2.46,0,0,1-2.12-1.23c-.43-.52-2.07-1.07-3.85-1.06a6.4,6.4,0,0,0-2.41.41,2.4,2.4,0,0,0-1.85,2.47c0,1,1.91,1.57,4.58,2.23,3.38.83,8.49,2.09,8.49,7.41a7.75,7.75,0,0,1-5.93,7.63,12.51,12.51,0,0,1-3.6.49c-3.64,0-6.89-1.35-8.16-3.54a2.71,2.71,0,0,1-.31-2A2.65,2.65,0,0,1,144,31a2.44,2.44,0,0,1,1.29-.39,2.48,2.48,0,0,1,2.1,1.21,6.43,6.43,0,0,0,4,1.08,7.36,7.36,0,0,0,2.63-.46A2.41,2.41,0,0,0,155.82,30c0-1-1.44-1.5-4.64-2.29-3.35-.83-8.43-2.08-8.43-7.35A7.72,7.72,0,0,1,148.63,12.74Z"/><path class="cls-31" d="M148.53,12.65a12.37,12.37,0,0,1,3.42-.46,13.11,13.11,0,0,1,3.12.36A7.65,7.65,0,0,1,160,15.72a2.78,2.78,0,0,1,.32,2,2.6,2.6,0,0,1-1.13,1.63,2.4,2.4,0,0,1-3.41-.84c-.42-.52-2.07-1.07-3.84-1.07a6.84,6.84,0,0,0-2.42.41,2.42,2.42,0,0,0-1.86,2.48c0,1,1.92,1.57,4.59,2.23,3.38.83,8.48,2.09,8.48,7.41a7.74,7.74,0,0,1-5.92,7.63,12.85,12.85,0,0,1-3.59.49c-3.66,0-6.9-1.36-8.17-3.54a2.71,2.71,0,0,1-.3-2,2.62,2.62,0,0,1,1.12-1.63,2.38,2.38,0,0,1,1.29-.39,2.47,2.47,0,0,1,2.12,1.22c.46.53,2.15,1.08,4,1.08a7.2,7.2,0,0,0,2.64-.46,2.4,2.4,0,0,0,1.86-2.43c0-1-1.44-1.5-4.64-2.31-3.36-.83-8.43-2.08-8.43-7.34A7.68,7.68,0,0,1,148.53,12.65Z"/><path class="cls-32" d="M148.44,12.56a12.32,12.32,0,0,1,3.42-.46,13.64,13.64,0,0,1,3.12.36,7.63,7.63,0,0,1,4.92,3.17,2.67,2.67,0,0,1,.3,2,2.57,2.57,0,0,1-1.12,1.63,2.35,2.35,0,0,1-1.29.38,2.43,2.43,0,0,1-2.11-1.23c-.43-.53-2.07-1.07-3.84-1.07a6.93,6.93,0,0,0-2.43.41,2.41,2.41,0,0,0-1.85,2.48c0,1,1.91,1.58,4.59,2.24,3.37.84,8.48,2.09,8.48,7.39a7.74,7.74,0,0,1-5.93,7.62,12.44,12.44,0,0,1-3.59.49c-3.67,0-6.9-1.39-8.16-3.53a2.77,2.77,0,0,1-.3-2,2.65,2.65,0,0,1,1.12-1.63,2.39,2.39,0,0,1,3.4.84c.46.53,2.16,1.08,4,1.08a7.3,7.3,0,0,0,2.65-.47,2.4,2.4,0,0,0,1.85-2.43c0-1-1.44-1.51-4.63-2.32-3.36-.83-8.43-2.08-8.43-7.33A7.67,7.67,0,0,1,148.44,12.56Z"/><path class="cls-33" d="M148.35,12.47a12,12,0,0,1,3.42-.46,13.17,13.17,0,0,1,3.12.36,7.63,7.63,0,0,1,4.92,3.17,2.71,2.71,0,0,1,.29,2A2.56,2.56,0,0,1,159,19.12a2.3,2.3,0,0,1-1.29.39,2.44,2.44,0,0,1-2.11-1.22c-.43-.53-2.07-1.08-3.84-1.07a6.77,6.77,0,0,0-2.44.41,2.41,2.41,0,0,0-1.85,2.48c0,1,1.91,1.58,4.59,2.24,3.38.84,8.48,2.1,8.48,7.39a7.73,7.73,0,0,1-5.92,7.62,12.85,12.85,0,0,1-3.59.49c-3.68,0-6.9-1.39-8.16-3.54a2.73,2.73,0,0,1-.3-2,2.6,2.6,0,0,1,1.12-1.62,2.38,2.38,0,0,1,1.29-.39,2.42,2.42,0,0,1,2.1,1.22,6.45,6.45,0,0,0,4,1.08,7.29,7.29,0,0,0,2.65-.46,2.41,2.41,0,0,0,1.86-2.44c0-1-1.44-1.51-4.64-2.32-3.35-.83-8.42-2.08-8.42-7.32A7.67,7.67,0,0,1,148.35,12.47Z"/><path class="cls-34" d="M148.27,12.38a12.31,12.31,0,0,1,3.41-.47,13.64,13.64,0,0,1,3.12.36,7.65,7.65,0,0,1,4.92,3.17,2.71,2.71,0,0,1,.29,2A2.56,2.56,0,0,1,158.9,19a2.38,2.38,0,0,1-3.39-.84c-.43-.52-2.07-1.07-3.85-1.07a6.93,6.93,0,0,0-2.43.41A2.42,2.42,0,0,0,147.37,20c0,1,1.91,1.58,4.61,2.25,3.37.83,8.47,2.09,8.47,7.38a7.74,7.74,0,0,1-5.92,7.61,12.86,12.86,0,0,1-3.59.5c-3.7,0-6.9-1.39-8.15-3.54a2.69,2.69,0,0,1-.3-2,2.6,2.6,0,0,1,1.12-1.62,2.38,2.38,0,0,1,3.38.83c.46.54,2.16,1.09,4,1.09a7.22,7.22,0,0,0,2.65-.47,2.41,2.41,0,0,0,1.86-2.44c0-1-1.44-1.51-4.64-2.31s-8.42-2.08-8.42-7.33A7.64,7.64,0,0,1,148.27,12.38Z"/><path class="cls-35" d="M150.83,37.64c-3.71,0-6.91-1.39-8.15-3.53a2.68,2.68,0,0,1-.3-2,2.56,2.56,0,0,1,1.11-1.61,2.35,2.35,0,0,1,1.29-.38,2.43,2.43,0,0,1,2.1,1.21c.46.53,2.16,1.09,4,1.09a7.52,7.52,0,0,0,2.66-.46,2.42,2.42,0,0,0,1.85-2.46c0-1-1.44-1.52-4.66-2.31s-8.41-2.07-8.41-7.32a7.68,7.68,0,0,1,5.86-7.62,12,12,0,0,1,3.41-.47c3.63,0,6.78,1.39,8,3.53a2.68,2.68,0,0,1,.3,2,2.56,2.56,0,0,1-1.11,1.61,2.29,2.29,0,0,1-1.29.38,2.41,2.41,0,0,1-2.1-1.21c-.43-.54-2.07-1.08-3.84-1.08a6.77,6.77,0,0,0-2.44.41,2.45,2.45,0,0,0-1.88,2.49c0,1,1.91,1.59,4.61,2.25,3.36.84,8.46,2.1,8.46,7.38a7.72,7.72,0,0,1-5.92,7.61,12.78,12.78,0,0,1-3.58.49Z"/><path class="cls-36" d="M150.83,37.8c-3.37,0-6.87-1.18-8.28-3.61a2.84,2.84,0,0,1,.87-3.78,2.54,2.54,0,0,1,3.51.77l.06.11c.59.68,3.91,1.57,6.49.56,1.56-.61,1.77-1.51,1.77-2.31s-1.46-1.39-4.54-2.17c-3.4-.84-8.53-2.1-8.53-7.46a7.84,7.84,0,0,1,6-7.78c4-1.17,9.68-.17,11.61,3.13a2.85,2.85,0,0,1-.87,3.79,2.56,2.56,0,0,1-3.52-.78l-.06-.11c-.54-.66-3.67-1.53-6.12-.6a2.28,2.28,0,0,0-1.77,2.35c0,.92,1.94,1.48,4.49,2.1,3.42.84,8.58,2.12,8.58,7.53a7.87,7.87,0,0,1-6,7.75A13.15,13.15,0,0,1,150.83,37.8Z"/><path class="cls-37" d="M150.83,37.19c-3.56,0-6.61-1.31-7.78-3.32a2.16,2.16,0,0,1-.24-1.61,2.11,2.11,0,0,1,.92-1.33,1.94,1.94,0,0,1,1.06-.32,2,2,0,0,1,1.73,1l0,0,0,0c.59.68,2.47,1.22,4.29,1.22a7.62,7.62,0,0,0,2.8-.5,2.86,2.86,0,0,0,2.15-2.88c0-1.43-1.88-2-5-2.78-3.41-.82-8.08-2-8.08-6.85a7.25,7.25,0,0,1,5.56-7.18,11.84,11.84,0,0,1,3.29-.47c3.49,0,6.49,1.3,7.66,3.31a2.24,2.24,0,0,1,.25,1.62,2.13,2.13,0,0,1-.93,1.32,1.89,1.89,0,0,1-1.06.32,2,2,0,0,1-1.72-1l0,0,0,0c-.55-.67-2.42-1.22-4.17-1.22A7.18,7.18,0,0,0,149,17a2.89,2.89,0,0,0-2.16,2.93c0,1.39,1.85,1.94,4.94,2.7,3.44.84,8.13,2,8.13,6.92a7.29,7.29,0,0,1-5.59,7.17,12.36,12.36,0,0,1-3.47.47Z"/><path class="cls-2" d="M21.36,41.48A6,6,0,0,1,17,39.6L12.2,34.5v.55a6.27,6.27,0,0,1-6.1,6.43A6.28,6.28,0,0,1,0,35.05V14.41A6.28,6.28,0,0,1,6.1,8a6.14,6.14,0,0,1,6,4.87l2.83-3a5.89,5.89,0,0,1,8.33-.3l.3.3a6.67,6.67,0,0,1,0,9.08l-4.4,4.64,6.56,6.92a6.68,6.68,0,0,1,0,9.09A6,6,0,0,1,21.36,41.48Z"/><path class="cls-3" d="M21.36,40.86a5.31,5.31,0,0,1-3.91-1.7L11.62,33v2A5.67,5.67,0,0,1,6.1,40.86,5.68,5.68,0,0,1,.58,35.05V14.41A5.68,5.68,0,0,1,6.1,8.6a5.67,5.67,0,0,1,5.52,5.56l3.67-3.86A5.35,5.35,0,0,1,22.83,10l.27.27a6,6,0,0,1,0,8.22l-4.84,5.07,7,7.36a6,6,0,0,1,0,8.21A5.31,5.31,0,0,1,21.36,40.86Z"/><path class="cls-4" d="M26.08,36.06l-9-9.52,6.86-7.23a2.83,2.83,0,0,0,0-3.89,2.52,2.52,0,0,0-3.56-.14.93.93,0,0,0-.14.14l-8.62,9.06V17.37A2.67,2.67,0,0,0,9,14.62a2.69,2.69,0,0,0-2.62,2.75V38A2.69,2.69,0,0,0,9,40.76H9A2.67,2.67,0,0,0,11.58,38V28.6L22.38,40A2.54,2.54,0,0,0,26,40.1l.14-.14A2.86,2.86,0,0,0,26.08,36.06Z"/><path class="cls-5" d="M8.89,14.52a2.69,2.69,0,0,1,2.61,2.75V24.4l8.61-9.07.18-.17a2.52,2.52,0,0,1,3.52.17,2.86,2.86,0,0,1,0,3.89l-6.87,7.23L26,36l.14.15A2.87,2.87,0,0,1,26,39.86a2.52,2.52,0,0,1-3.56.15l-.15-.15L11.5,28.49v9.69a2.66,2.66,0,0,1-2.6,2.48,2.68,2.68,0,0,1-2.61-2.74V17.27A2.69,2.69,0,0,1,8.89,14.52Z"/><path class="cls-6" d="M8.8,14.44a2.67,2.67,0,0,1,2.61,2.74v7.14L20,15.25l.18-.18a2.5,2.5,0,0,1,3.51.17,2.83,2.83,0,0,1,0,3.87l-6.87,7.24,9,9.52A1.07,1.07,0,0,1,26,36a2.84,2.84,0,0,1-.13,3.73,2.51,2.51,0,0,1-3.55.15l-.16-.15L11.4,28.39v9.42a1.13,1.13,0,0,1,0,.26,2.66,2.66,0,0,1-2.6,2.49,2.67,2.67,0,0,1-2.6-2.74V17.18A2.67,2.67,0,0,1,8.8,14.44Z"/><path class="cls-7" d="M8.7,14.35a2.69,2.69,0,0,1,2.61,2.74v7.14l8.61-9.07L20.1,15a2.51,2.51,0,0,1,3.52.15,2.86,2.86,0,0,1,0,3.88l-6.88,7.23,9,9.53.14.15a2.84,2.84,0,0,1-.13,3.73,2.51,2.51,0,0,1-3.55.13l-.12-.13L11.31,28.28V38a2.65,2.65,0,0,1-2.59,2.49,2.66,2.66,0,0,1-2.6-2.73V17.08A2.67,2.67,0,0,1,8.7,14.35Z"/><path class="cls-8" d="M8.61,14.25A2.68,2.68,0,0,1,11.21,17v7.16l8.62-9.08L20,14.9a2.49,2.49,0,0,1,3.51.16,2.84,2.84,0,0,1,0,3.86l-6.88,7.24,9,9.51.14.15a2.84,2.84,0,0,1-.12,3.7,2.5,2.5,0,0,1-3.54.14.86.86,0,0,1-.13-.14L11.21,28.17v9.7a2.65,2.65,0,0,1-2.59,2.49A2.66,2.66,0,0,1,6,37.63V17A2.67,2.67,0,0,1,8.61,14.25Z"/><path class="cls-9" d="M8.52,14.16a2.66,2.66,0,0,1,2.6,2.72h0v7.19L19.73,15l.18-.17a2.49,2.49,0,0,1,3.51.14,2.82,2.82,0,0,1,0,3.86l-6.88,7.24,9,9.52.14.15a2.84,2.84,0,0,1-.12,3.71,2.5,2.5,0,0,1-3.54.12l-.12-.12L11.12,28.06v9.46A2.74,2.74,0,0,1,8.53,40.3a2.66,2.66,0,0,1-2.61-2.71V16.89A2.66,2.66,0,0,1,8.52,14.16Z"/><path class="cls-10" d="M8.42,14.07A2.66,2.66,0,0,1,11,16.79V24l8.63-9.08a1.45,1.45,0,0,1,.18-.17,2.49,2.49,0,0,1,3.51.14,2.86,2.86,0,0,1,0,3.86L16.44,26l9,9.51.14.16a2.85,2.85,0,0,1-.11,3.73,2.5,2.5,0,0,1-3.52.15l-.14-.15L11,28v9.7a2.64,2.64,0,0,1-2.58,2.5,2.65,2.65,0,0,1-2.58-2.72V16.79A2.65,2.65,0,0,1,8.42,14.07Z"/><path class="cls-11" d="M8.34,14a2.66,2.66,0,0,1,2.58,2.72h0v7.2l8.62-9.08.18-.18a2.49,2.49,0,0,1,3.51.13A2.87,2.87,0,0,1,24,16.63a2.8,2.8,0,0,1-.76,2l-6.89,7.24,9,9.52.14.15a2.81,2.81,0,0,1,.64,1.88,2.76,2.76,0,0,1-.75,1.85,2.49,2.49,0,0,1-3.52.14l-.13-.14L10.91,27.85v9.44a1.22,1.22,0,0,1,0,.27,2.63,2.63,0,0,1-2.57,2.5,2.65,2.65,0,0,1-2.58-2.72h0V16.7A2.66,2.66,0,0,1,8.34,14Z"/><path class="cls-12" d="M8.24,13.89a2.64,2.64,0,0,1,2.57,2.71v7.22l8.65-9.09.18-.17a2.47,2.47,0,0,1,3.5.12h0a2.8,2.8,0,0,1,0,3.83l-6.91,7.26,9,9.51.13.15a2.82,2.82,0,0,1-.1,3.71,2.47,2.47,0,0,1-3.51.12l-.13-.12L10.81,27.74v9.45a1.13,1.13,0,0,1,0,.26A2.62,2.62,0,0,1,8.25,40a2.65,2.65,0,0,1-2.58-2.71V16.6A2.64,2.64,0,0,1,8.24,13.89Z"/><path class="cls-13" d="M8.15,13.8a2.65,2.65,0,0,1,2.57,2.71v7.22l8.63-9.09.18-.17a2.49,2.49,0,0,1,1.78-.67,2.54,2.54,0,0,1,1.74.79,2.8,2.8,0,0,1,0,3.83l-6.91,7.27,9,9.51.13.15a2.8,2.8,0,0,1-.09,3.71,2.49,2.49,0,0,1-3.5.14l-.14-.14L10.72,27.64v9.44a2.76,2.76,0,0,1-2.57,2.78,2.65,2.65,0,0,1-2.59-2.7h0V16.51A2.64,2.64,0,0,1,8.13,13.8Z"/><path class="cls-14" d="M8.05,13.71a2.64,2.64,0,0,1,2.57,2.7v7.24l8.64-9.09.17-.18a2.48,2.48,0,0,1,3.5.11h0a2.8,2.8,0,0,1,0,3.83L16,25.59l9,9.51.13.15A2.8,2.8,0,0,1,25.12,39a2.48,2.48,0,0,1-3.5.13L21.49,39,10.62,27.53v9.71a2.62,2.62,0,0,1-2.56,2.52,2.63,2.63,0,0,1-2.57-2.69h0V16.41A2.63,2.63,0,0,1,8.05,13.71Z"/><path class="cls-15" d="M8,13.62a2.63,2.63,0,0,1,2.56,2.7v7.25l8.64-9.1.18-.17a2.48,2.48,0,0,1,3.5.1h0a2.79,2.79,0,0,1,0,3.82L15.94,25.5,25,35a1.83,1.83,0,0,1,.13.16A2.77,2.77,0,0,1,25.78,37,2.73,2.73,0,0,1,25,38.86a2.47,2.47,0,0,1-3.5.12l-.12-.12L10.52,27.42v9.72A2.62,2.62,0,0,1,8,39.66,2.63,2.63,0,0,1,5.41,37V16.32A2.63,2.63,0,0,1,8,13.62Z"/><path class="cls-16" d="M7.88,13.53a2.63,2.63,0,0,1,2.55,2.68v7.27l8.64-9.1.17-.17a2.46,2.46,0,0,1,3.51.11,2.77,2.77,0,0,1,0,3.81L15.84,25.4l9,9.51.13.15a2.78,2.78,0,0,1-.08,3.71,2.47,2.47,0,0,1-3.48.14l-.14-.14L10.43,27.33V37a2.62,2.62,0,0,1-2.55,2.53,2.63,2.63,0,0,1-2.56-2.69V16.21A2.62,2.62,0,0,1,7.88,13.53Z"/><path class="cls-17" d="M7.77,13.43a2.62,2.62,0,0,1,2.56,2.68v7.28L19,14.3l.17-.18a2.45,2.45,0,0,1,3.47.07l0,0a2.78,2.78,0,0,1,0,3.8l-6.93,7.28,9,9.5.14.15a2.77,2.77,0,0,1-.08,3.71,2.46,2.46,0,0,1-3.48.13l-.13-.13L10.33,27.2v9.73a2.6,2.6,0,0,1-2.55,2.53,2.62,2.62,0,0,1-2.55-2.69V16.13a2.62,2.62,0,0,1,2.54-2.7Z"/><path class="cls-18" d="M7.68,13.35A2.61,2.61,0,0,1,10.23,16v7.29l8.65-9.11.17-.17a2.45,2.45,0,0,1,3.47.06l0,0a2.8,2.8,0,0,1,0,3.8l-6.92,7.28,9,9.53.13.15a2.78,2.78,0,0,1-.07,3.7,2.47,2.47,0,0,1-3.49.12l-.12-.12L10.23,27.1v9.72a2.6,2.6,0,0,1-2.55,2.55,2.63,2.63,0,0,1-2.55-2.68V16A2.63,2.63,0,0,1,7.68,13.35Z"/><path class="cls-19" d="M7.59,13.26a2.61,2.61,0,0,1,2.54,2.68v7.29l8.65-9.1L19,14a2.45,2.45,0,0,1,3.5.09,2.77,2.77,0,0,1,0,3.79l-6.91,7.28,9,9.51.13.15a2.75,2.75,0,0,1-.07,3.7,2.44,2.44,0,0,1-3.46.14L21,38.47,10.13,27v9.73A2.59,2.59,0,0,1,7.6,39.26,2.62,2.62,0,0,1,5,36.59V15.94A2.62,2.62,0,0,1,7.59,13.26Z"/><path class="cls-20" d="M7.5,13.17A2.61,2.61,0,0,1,10,15.84v7.32L18.69,14l.17-.17a2.44,2.44,0,0,1,3.46,0l.05,0a2.73,2.73,0,0,1,.74,1.86,2.79,2.79,0,0,1-.74,1.94L15.44,25l9,9.51.14.15a2.78,2.78,0,0,1-.07,3.71,2.45,2.45,0,0,1-3.46.12L21,38.38,10,26.89v9.73a2.61,2.61,0,0,1-2.53,2.54A2.62,2.62,0,0,1,5,36.49V15.84A2.62,2.62,0,0,1,7.5,13.17Z"/><path class="cls-21" d="M7.41,13.08a2.61,2.61,0,0,1,2.53,2.66v7.32L18.59,14l.18-.17a2.43,2.43,0,0,1,3.44,0l.06.06a2.78,2.78,0,0,1,0,3.77l-6.92,7.29,9,9.5.14.15a2.78,2.78,0,0,1-.06,3.71A2.46,2.46,0,0,1,21,38.4l-.12-.12L9.94,26.78v9.73a2.6,2.6,0,0,1-2.53,2.55,2.62,2.62,0,0,1-2.54-2.67V15.74A2.61,2.61,0,0,1,7.41,13.08Z"/><path class="cls-22" d="M7.31,13a2.59,2.59,0,0,1,2.53,2.66V23l8.66-9.09.17-.18a2.43,2.43,0,0,1,3.44,0l.06.06a2.77,2.77,0,0,1,0,3.76l-7,7.3,9,9.49.14.15a2.76,2.76,0,0,1,.68,1.86,2.71,2.71,0,0,1-.74,1.85,2.43,2.43,0,0,1-3.44.14l-.14-.14L9.84,26.67v9.72a2.59,2.59,0,0,1-2.53,2.55,2.61,2.61,0,0,1-2.53-2.66V15.65A2.61,2.61,0,0,1,7.31,13Z"/><path class="cls-23" d="M7.21,12.9a2.6,2.6,0,0,1,2.52,2.66V22.9l8.67-9.12.18-.17a2.42,2.42,0,0,1,3.44,0l.06.06a2.77,2.77,0,0,1,0,3.76l-6.95,7.29,9,9.5.14.15a2.75,2.75,0,0,1,0,3.7,2.44,2.44,0,0,1-3.45.13,1.59,1.59,0,0,1-.13-.13L9.73,26.56V36.3A2.59,2.59,0,0,1,7.2,38.86,2.6,2.6,0,0,1,4.68,36.2V15.56A2.59,2.59,0,0,1,7.21,12.9Z"/><path class="cls-24" d="M7.12,12.81a2.59,2.59,0,0,1,2.53,2.65v7.36l8.66-9.13a1.36,1.36,0,0,0,.17-.17,2.43,2.43,0,0,1,3.44,0l.06.06a2.79,2.79,0,0,1,0,3.76l-7,7.29,9.06,9.51.14.14A2.78,2.78,0,0,1,24.18,38a2.43,2.43,0,0,1-3.44.12L20.62,38l-11-11.54V36.2a2.6,2.6,0,0,1-2.52,2.56A2.6,2.6,0,0,1,4.6,36.13V15.46A2.59,2.59,0,0,1,7.12,12.81Z"/><path class="cls-25" d="M7,12.72a2.57,2.57,0,0,1,2.51,2.65v7.36l8.67-9.12s.15-.16.18-.18a2.41,2.41,0,0,1,3.42,0,.23.23,0,0,1,.07.07,2.74,2.74,0,0,1,0,3.75L15,24.55,24,34l.14.15a2.75,2.75,0,0,1,.69,1.86,2.66,2.66,0,0,1-.74,1.85,2.42,2.42,0,0,1-3.42.13l-.14-.13-11-11.55v9.73A2.57,2.57,0,0,1,7,38.64,2.6,2.6,0,0,1,4.51,36V15.37A2.59,2.59,0,0,1,7,12.72Z"/><path class="cls-26" d="M7,12.62a2.59,2.59,0,0,1,2.5,2.66v7.37l8.67-9.13.17-.17a2.43,2.43,0,0,1,3.42,0l.07.08a2.63,2.63,0,0,1,.73,1.85,2.7,2.7,0,0,1-.73,1.85l-7,7.3,9,9.5.13.15a2.76,2.76,0,0,1,0,3.71,2.44,2.44,0,0,1-3.44.12l-.12-.12L9.45,26.24V36A2.59,2.59,0,0,1,7,38.56a2.59,2.59,0,0,1-2.51-2.64V15.28A2.58,2.58,0,0,1,7,12.62Z"/><path class="cls-27" d="M6.84,12.54a2.57,2.57,0,0,1,2.51,2.64v7.39L18,13.43l.18-.18a2.41,2.41,0,0,1,3.41,0l.08.09a2.74,2.74,0,0,1,0,3.7l-7,7.31,9,9.53.13.15a2.74,2.74,0,0,1,0,3.71,2.43,2.43,0,0,1-3.42.13l-.12-.13-11-11.57v9.76a2.58,2.58,0,0,1-2.51,2.56,2.59,2.59,0,0,1-2.5-2.65V15.18A2.56,2.56,0,0,1,6.84,12.54Z"/><path class="cls-28" d="M6.75,12.44a2.58,2.58,0,0,1,2.52,2.63h0v7.41l8.66-9.14.17-.18a2.42,2.42,0,0,1,3.42,0l.08.08a2.74,2.74,0,0,1,0,3.7l-7,7.31,9,9.52.14.15a2.73,2.73,0,0,1,0,3.7,2.4,2.4,0,0,1-3.4.14l-.14-.14L9.27,26v9.76a2.58,2.58,0,0,1-2.51,2.57,2.58,2.58,0,0,1-2.5-2.64V15.08A2.59,2.59,0,0,1,6.75,12.44Z"/><path class="cls-29" d="M6.66,12.35A2.58,2.58,0,0,1,9.16,15V22.4l8.67-9.14.17-.17A2.41,2.41,0,0,1,21.41,13l.09.09a2.73,2.73,0,0,1,0,3.71l-6.95,7.32,9,9.5.13.15a2.73,2.73,0,0,1,0,3.7,2.41,2.41,0,0,1-3.41.13l-.12-.13-11-11.56v9.73a2.57,2.57,0,0,1-2.5,2.57,2.56,2.56,0,0,1-2.49-2.61V15A2.58,2.58,0,0,1,6.66,12.35Z"/><path class="cls-30" d="M6.57,12.26a2.57,2.57,0,0,1,2.49,2.63V22.3l8.68-9.12.17-.18a2.41,2.41,0,0,1,3.4-.06l.09.09a2.73,2.73,0,0,1,0,3.71l-6.95,7.34,9,9.48.13.14a2.73,2.73,0,0,1,0,3.71,2.41,2.41,0,0,1-3.4.13l-.12-.13-11-11.59v9.76a2.57,2.57,0,0,1-2.5,2.58,2.57,2.57,0,0,1-2.49-2.63V14.89A2.56,2.56,0,0,1,6.57,12.26Z"/><path class="cls-31" d="M6.49,12.17A2.56,2.56,0,0,1,9,14.81H9v7.41l8.68-9.14.17-.17a2.4,2.4,0,0,1,3.4-.06l.1.1a2.73,2.73,0,0,1,0,3.71L14.36,24l9,9.49.14.14a2.73,2.73,0,0,1,0,3.71,2.41,2.41,0,0,1-3.4.13L20,37.31,9,25.73v9.74a2.56,2.56,0,0,1-2.49,2.59A2.57,2.57,0,0,1,4,35.44V14.82a2.58,2.58,0,0,1,2.48-2.65Z"/><path class="cls-32" d="M6.38,12.08A2.55,2.55,0,0,1,8.86,14.7v7.45L17.55,13l.17-.17a2.39,2.39,0,0,1,3.37-.12l.12.12a2.71,2.71,0,0,1,0,3.71l-7,7.32,9,9.49.13.14a2.71,2.71,0,0,1,0,3.71,2.4,2.4,0,0,1-3.39.12l-.12-.12-11-11.58v9.75A2.55,2.55,0,0,1,6.39,38a2.54,2.54,0,0,1-2.49-2.6h0V14.7A2.55,2.55,0,0,1,6.38,12.08Z"/><path class="cls-33" d="M6.29,12A2.56,2.56,0,0,1,8.77,14.6v7.47l8.68-9.15.17-.18A2.4,2.4,0,0,1,21,12.63l.11.11a2.69,2.69,0,0,1,0,3.71l-6.95,7.33,9,9.49.13.14a2.71,2.71,0,0,1,0,3.71,2.39,2.39,0,0,1-3.37.13l-.13-.13-11-11.65v9.79a2.56,2.56,0,0,1-2.48,2.6,2.55,2.55,0,0,1-2.48-2.62V14.6A2.55,2.55,0,0,1,6.29,12Z"/><path class="cls-34" d="M6.19,11.9a2.54,2.54,0,0,1,2.48,2.6V22l8.69-9.15.16-.17a2.39,2.39,0,0,1,3.37-.13l.13.13a2.71,2.71,0,0,1,0,3.71L14.07,23.7l9,9.47.13.14a2.71,2.71,0,0,1,0,3.68,2.38,2.38,0,0,1-3.37.13L19.7,37l-11-11.58v9.77a2.55,2.55,0,0,1-2.48,2.6,2.54,2.54,0,0,1-2.48-2.6V14.5a2.53,2.53,0,0,1,2.48-2.6Z"/><path class="cls-35" d="M21.36,37.65a2.36,2.36,0,0,1-1.75-.76l-11-11.62v9.78a2.53,2.53,0,0,1-2.47,2.6,2.54,2.54,0,0,1-2.47-2.6V14.41a2.54,2.54,0,0,1,2.47-2.6,2.54,2.54,0,0,1,2.47,2.6V21.9l8.86-9.33a2.39,2.39,0,0,1,3.37-.12l.12.12a2.69,2.69,0,0,1,0,3.68l-7,7.34,9.13,9.63a2.68,2.68,0,0,1,0,3.67A2.35,2.35,0,0,1,21.36,37.65Z"/><path class="cls-38" d="M23.2,33.11l-9-9.52L21,16.36a2.86,2.86,0,0,0,0-3.89,2.53,2.53,0,0,0-3.57-.15l-.14.15-8.6,9.06V14.41A2.7,2.7,0,0,0,6.1,11.66a2.7,2.7,0,0,0-2.62,2.75V35.05A2.7,2.7,0,0,0,6.1,37.81a2.7,2.7,0,0,0,2.62-2.76V25.64L19.51,37a2.52,2.52,0,0,0,3.56.14l.14-.14A2.84,2.84,0,0,0,23.2,33.11Z"/><path class="cls-39" d="M21.36,37.19a2,2,0,0,1-1.44-.6L8.14,24.17V35.05a2.1,2.1,0,0,1-2,2.14,2.08,2.08,0,0,1-2-2.14V14.41a2.09,2.09,0,0,1,2-2.14,2.1,2.1,0,0,1,2,2.14V23l9.6-10.11a2,2,0,0,1,2.78-.1l.09.1a2.21,2.21,0,0,1,0,3l-7.28,7.66,9.46,10a2.21,2.21,0,0,1,0,3A1.94,1.94,0,0,1,21.36,37.19Z"/><path class="cls-2" d="M34.23,41.48a6.28,6.28,0,0,1-6.1-6.43V14.41a6.11,6.11,0,1,1,12.2,0V35.05A6.27,6.27,0,0,1,34.23,41.48Z"/><path class="cls-3" d="M34.23,40.86a5.66,5.66,0,0,1-5.5-5.81V14.41a5.52,5.52,0,1,1,11,0V35.05A5.67,5.67,0,0,1,34.23,40.86Z"/><path class="cls-4" d="M37.11,40.76A2.68,2.68,0,0,1,34.5,38V17.37a2.62,2.62,0,1,1,5.23-.22V38A2.7,2.7,0,0,1,37.11,40.76Z"/><path class="cls-5" d="M37,40.66a2.67,2.67,0,0,1-2.61-2.74V17.27a2.61,2.61,0,0,1,5.22-.22V37.92A2.67,2.67,0,0,1,37,40.66Z"/><path class="cls-6" d="M36.93,40.56a2.67,2.67,0,0,1-2.61-2.74V17.18A2.61,2.61,0,1,1,39.53,17a.81.81,0,0,1,0,.22V37.82A2.67,2.67,0,0,1,36.93,40.56Z"/><path class="cls-7" d="M36.84,40.46a2.68,2.68,0,0,1-2.61-2.73V17.08a2.6,2.6,0,0,1,5.2-.22.81.81,0,0,1,0,.22V37.73A2.66,2.66,0,0,1,36.84,40.46Z"/><path class="cls-8" d="M36.74,40.36a2.67,2.67,0,0,1-2.6-2.73V17a2.6,2.6,0,0,1,5.2-.22V37.63A2.67,2.67,0,0,1,36.74,40.36Z"/><path class="cls-9" d="M36.65,40.26a2.65,2.65,0,0,1-2.59-2.73h0V16.89a2.59,2.59,0,0,1,5.18-.22V37.52a2.66,2.66,0,0,1-2.58,2.74Z"/><path class="cls-10" d="M36.55,40.16A2.65,2.65,0,0,1,34,37.44V16.79a2.59,2.59,0,0,1,5.17-.22.81.81,0,0,1,0,.22V37.44A2.64,2.64,0,0,1,36.55,40.16Z"/><path class="cls-11" d="M36.46,40.06a2.65,2.65,0,0,1-2.58-2.72V16.7a2.59,2.59,0,0,1,5.17-.22V37.34A2.66,2.66,0,0,1,36.46,40.06Z"/><path class="cls-12" d="M36.37,40a2.65,2.65,0,0,1-2.58-2.71V16.6A2.58,2.58,0,0,1,39,16.38V37.25A2.65,2.65,0,0,1,36.37,40Z"/><path class="cls-13" d="M36.27,39.86a2.65,2.65,0,0,1-2.57-2.71V16.51a2.58,2.58,0,0,1,5.15-.22V37.15A2.64,2.64,0,0,1,36.27,39.86Z"/><path class="cls-14" d="M36.18,39.76a2.63,2.63,0,0,1-2.56-2.7h0V16.41a2.57,2.57,0,0,1,5.13-.31,1.6,1.6,0,0,1,0,.31V37.06a2.64,2.64,0,0,1-2.57,2.7Z"/><path class="cls-15" d="M36.09,39.66A2.63,2.63,0,0,1,33.53,37V16.32A2.56,2.56,0,1,1,38.65,16a1.6,1.6,0,0,1,0,.31V37A2.63,2.63,0,0,1,36.09,39.66Z"/><path class="cls-16" d="M36,39.56a2.63,2.63,0,0,1-2.56-2.69V16.21a2.56,2.56,0,0,1,5.1-.54,4.86,4.86,0,0,1,0,.54V36.87A2.63,2.63,0,0,1,36,39.56Z"/><path class="cls-17" d="M35.9,39.46a2.62,2.62,0,0,1-2.54-2.69V16.13a2.56,2.56,0,1,1,5.1-.44,3.23,3.23,0,0,1,0,.44V36.77A2.63,2.63,0,0,1,35.9,39.46Z"/><path class="cls-18" d="M35.81,39.37a2.63,2.63,0,0,1-2.55-2.68V16a2.55,2.55,0,0,1,5.1-.3,1.5,1.5,0,0,1,0,.3V36.68a2.61,2.61,0,0,1-2.54,2.69Z"/><path class="cls-19" d="M35.72,39.26a2.6,2.6,0,0,1-2.54-2.67V15.94a2.55,2.55,0,1,1,5.09,0V36.59A2.61,2.61,0,0,1,35.72,39.26Z"/><path class="cls-20" d="M35.63,39.16a2.61,2.61,0,0,1-2.54-2.67V15.84a2.55,2.55,0,0,1,5.09,0V36.49a2.61,2.61,0,0,1-2.55,2.67Z"/><path class="cls-21" d="M35.53,39.06A2.61,2.61,0,0,1,33,36.39V15.74a2.54,2.54,0,1,1,5.07-.3v21A2.62,2.62,0,0,1,35.53,39.06Z"/><path class="cls-22" d="M35.44,39a2.6,2.6,0,0,1-2.54-2.65h0V15.65a2.55,2.55,0,1,1,5.09,0V36.3A2.6,2.6,0,0,1,35.45,39Z"/><path class="cls-23" d="M35.35,38.86a2.61,2.61,0,0,1-2.53-2.66V15.56a2.53,2.53,0,0,1,5-.31,1.6,1.6,0,0,1,0,.31V36.2A2.59,2.59,0,0,1,35.35,38.86Z"/><path class="cls-24" d="M35.26,38.76a2.6,2.6,0,0,1-2.53-2.63V15.46a2.53,2.53,0,0,1,5.05-.31v21A2.6,2.6,0,0,1,35.26,38.76Z"/><path class="cls-25" d="M35.16,38.66A2.59,2.59,0,0,1,32.65,36V15.37a2.52,2.52,0,1,1,5-.31V36A2.6,2.6,0,0,1,35.16,38.66Z"/><path class="cls-26" d="M35.07,38.56a2.59,2.59,0,0,1-2.51-2.64V15.28a2.51,2.51,0,1,1,5-.31,1.61,1.61,0,0,1,0,.31V35.92A2.58,2.58,0,0,1,35.07,38.56Z"/><path class="cls-27" d="M35,38.45a2.58,2.58,0,0,1-2.51-2.65V15.18a2.51,2.51,0,1,1,5-.22.81.81,0,0,1,0,.22V35.82A2.59,2.59,0,0,1,35,38.45Z"/><path class="cls-28" d="M34.88,38.36a2.58,2.58,0,0,1-2.5-2.64V15.08a2.51,2.51,0,0,1,5-.22V35.72A2.59,2.59,0,0,1,34.88,38.36Z"/><path class="cls-29" d="M34.79,38.26a2.57,2.57,0,0,1-2.5-2.63V15a2.5,2.5,0,1,1,5-.21V35.63A2.58,2.58,0,0,1,34.79,38.26Z"/><path class="cls-30" d="M34.69,38.16a2.57,2.57,0,0,1-2.49-2.63V14.89a2.5,2.5,0,1,1,5-.3V35.53A2.57,2.57,0,0,1,34.69,38.16Z"/><path class="cls-31" d="M34.6,38.06a2.56,2.56,0,0,1-2.49-2.62V14.82a2.49,2.49,0,1,1,5-.31,1.6,1.6,0,0,1,0,.31V35.44A2.56,2.56,0,0,1,34.6,38.06Z"/><path class="cls-32" d="M34.51,38A2.54,2.54,0,0,1,32,35.34V14.7a2.48,2.48,0,1,1,5-.3,1.5,1.5,0,0,1,0,.3V35.34A2.53,2.53,0,0,1,34.51,38Z"/><path class="cls-33" d="M34.42,37.86a2.55,2.55,0,0,1-2.48-2.62V14.6a2.48,2.48,0,0,1,5-.3V35.24A2.56,2.56,0,0,1,34.42,37.86Z"/><path class="cls-34" d="M34.32,37.75a2.54,2.54,0,0,1-2.47-2.6V14.5a2.48,2.48,0,0,1,4.95-.3v21A2.54,2.54,0,0,1,34.32,37.75Z"/><path class="cls-35" d="M34.23,37.65a2.54,2.54,0,0,1-2.47-2.6V14.41a2.47,2.47,0,1,1,4.94-.3,1.5,1.5,0,0,1,0,.3V35.05A2.54,2.54,0,0,1,34.23,37.65Z"/><path class="cls-40" d="M34.23,37.81a2.68,2.68,0,0,1-2.61-2.75h0V14.41a2.62,2.62,0,0,1,5.23-.22V35.05A2.69,2.69,0,0,1,34.23,37.81Z"/><path class="cls-41" d="M34.23,37.19a2.08,2.08,0,0,1-2-2.14V14.41a2,2,0,1,1,4.07-.27V35.05A2.1,2.1,0,0,1,34.23,37.19Z"/><path class="cls-2" d="M104.8,41.48a6.27,6.27,0,0,1-6.09-6.43V14.41a6.1,6.1,0,1,1,12.19,0V35.05A6.27,6.27,0,0,1,104.8,41.48Z"/><path class="cls-3" d="M104.8,40.86a5.68,5.68,0,0,1-5.52-5.81V14.41a5.53,5.53,0,1,1,11,0V35.05A5.68,5.68,0,0,1,104.8,40.86Z"/><path class="cls-4" d="M107.68,40.76A2.68,2.68,0,0,1,105.07,38h0V17.37a2.62,2.62,0,1,1,5.23-.31V38a2.68,2.68,0,0,1-2.61,2.75Z"/><path class="cls-5" d="M107.59,40.66A2.68,2.68,0,0,1,105,37.92V17.27A2.61,2.61,0,0,1,110.2,17a1.61,1.61,0,0,1,0,.31V37.92A2.67,2.67,0,0,1,107.59,40.66Z"/><path class="cls-6" d="M107.49,40.56a2.67,2.67,0,0,1-2.6-2.74h0V17.18a2.61,2.61,0,0,1,5.21-.31v21A2.67,2.67,0,0,1,107.49,40.56Z"/><path class="cls-7" d="M107.41,40.46a2.68,2.68,0,0,1-2.61-2.73V17.08a2.61,2.61,0,0,1,5.21-.22V37.73A2.67,2.67,0,0,1,107.41,40.46Z"/><path class="cls-8" d="M107.31,40.36a2.67,2.67,0,0,1-2.6-2.73V17a2.6,2.6,0,0,1,5.2-.22V37.63A2.67,2.67,0,0,1,107.31,40.36Z"/><path class="cls-9" d="M107.22,40.26a2.66,2.66,0,0,1-2.59-2.73V16.89a2.59,2.59,0,0,1,5.18-.22V37.52a2.65,2.65,0,0,1-2.57,2.74Z"/><path class="cls-10" d="M107.13,40.16a2.64,2.64,0,0,1-2.59-2.72V16.79a2.59,2.59,0,0,1,5.17-.22.81.81,0,0,1,0,.22V37.44A2.65,2.65,0,0,1,107.13,40.16Z"/><path class="cls-11" d="M107,40.06a2.65,2.65,0,0,1-2.58-2.72V16.7a2.58,2.58,0,1,1,5.16-.22.81.81,0,0,1,0,.22V37.34A2.65,2.65,0,0,1,107,40.06Z"/><path class="cls-12" d="M106.94,40a2.65,2.65,0,0,1-2.58-2.71h0V16.6a2.58,2.58,0,0,1,5.16-.22V37.25A2.65,2.65,0,0,1,106.94,40Z"/><path class="cls-13" d="M106.85,39.86a2.65,2.65,0,0,1-2.58-2.71V16.51a2.58,2.58,0,0,1,5.15-.22.81.81,0,0,1,0,.22V37.15A2.64,2.64,0,0,1,106.85,39.86Z"/><path class="cls-14" d="M106.75,39.76a2.63,2.63,0,0,1-2.56-2.7V16.41a2.57,2.57,0,1,1,5.13-.21.74.74,0,0,1,0,.21V37.06A2.64,2.64,0,0,1,106.75,39.76Z"/><path class="cls-15" d="M106.66,39.66A2.63,2.63,0,0,1,104.1,37V16.32a2.57,2.57,0,0,1,5.13-.22V37A2.64,2.64,0,0,1,106.66,39.66Z"/><path class="cls-16" d="M106.57,39.56A2.63,2.63,0,0,1,104,36.87V16.21a2.56,2.56,0,1,1,5.12-.22V36.87A2.63,2.63,0,0,1,106.57,39.56Z"/><path class="cls-17" d="M106.48,39.46a2.63,2.63,0,0,1-2.56-2.69V16.13a2.56,2.56,0,1,1,5.1-.44,3.23,3.23,0,0,1,0,.44V36.77A2.63,2.63,0,0,1,106.48,39.46Z"/><path class="cls-18" d="M106.38,39.37a2.63,2.63,0,0,1-2.55-2.68V16a2.55,2.55,0,1,1,5.1-.3,1.5,1.5,0,0,1,0,.3V36.68a2.61,2.61,0,0,1-2.54,2.69Z"/><path class="cls-19" d="M106.29,39.26a2.61,2.61,0,0,1-2.54-2.67V15.94a2.55,2.55,0,1,1,5.09,0V36.59A2.61,2.61,0,0,1,106.29,39.26Z"/><path class="cls-20" d="M106.2,39.16a2.61,2.61,0,0,1-2.54-2.67V15.84a2.55,2.55,0,0,1,5.1,0V36.49a2.62,2.62,0,0,1-2.55,2.67Z"/><path class="cls-21" d="M106.1,39.06a2.61,2.61,0,0,1-2.53-2.67V15.74a2.54,2.54,0,1,1,5.07-.3,1.5,1.5,0,0,1,0,.3V36.39A2.61,2.61,0,0,1,106.1,39.06Z"/><path class="cls-22" d="M106,39a2.61,2.61,0,0,1-2.53-2.66V15.65a2.53,2.53,0,0,1,5.06-.31,1.61,1.61,0,0,1,0,.31V36.3A2.6,2.6,0,0,1,106,39Z"/><path class="cls-23" d="M105.92,38.86a2.61,2.61,0,0,1-2.53-2.66V15.56a2.53,2.53,0,0,1,5-.31,1.6,1.6,0,0,1,0,.31V36.2A2.59,2.59,0,0,1,105.92,38.86Z"/><path class="cls-24" d="M105.83,38.76a2.6,2.6,0,0,1-2.51-2.63V15.46a2.53,2.53,0,0,1,5.05-.31v21A2.6,2.6,0,0,1,105.83,38.76Z"/><path class="cls-25" d="M105.73,38.66A2.59,2.59,0,0,1,103.22,36V15.37a2.52,2.52,0,0,1,5-.31,1.6,1.6,0,0,1,0,.31V36A2.59,2.59,0,0,1,105.73,38.66Z"/><path class="cls-26" d="M105.64,38.56a2.59,2.59,0,0,1-2.51-2.64V15.28a2.51,2.51,0,1,1,5-.31,1.61,1.61,0,0,1,0,.31V35.92A2.58,2.58,0,0,1,105.64,38.56Z"/><path class="cls-27" d="M105.55,38.45A2.59,2.59,0,0,1,103,35.8V15.18a2.51,2.51,0,0,1,5-.31v21A2.6,2.6,0,0,1,105.55,38.45Z"/><path class="cls-28" d="M105.46,38.36A2.59,2.59,0,0,1,103,35.72V15.08a2.51,2.51,0,0,1,5-.31v21A2.58,2.58,0,0,1,105.46,38.36Z"/><path class="cls-29" d="M105.36,38.26a2.57,2.57,0,0,1-2.5-2.63h0V15a2.5,2.5,0,0,1,5-.3v21A2.58,2.58,0,0,1,105.36,38.26Z"/><path class="cls-30" d="M105.27,38.16a2.57,2.57,0,0,1-2.49-2.63V14.89a2.49,2.49,0,1,1,5-.3,1.5,1.5,0,0,1,0,.3V35.53A2.57,2.57,0,0,1,105.27,38.16Z"/><path class="cls-31" d="M105.18,38.06a2.56,2.56,0,0,1-2.49-2.62V14.82a2.49,2.49,0,0,1,5-.31V35.44A2.56,2.56,0,0,1,105.18,38.06Z"/><path class="cls-32" d="M105.09,38a2.55,2.55,0,0,1-2.49-2.61V14.7a2.49,2.49,0,1,1,5-.3,1.5,1.5,0,0,1,0,.3V35.34A2.55,2.55,0,0,1,105.09,38Z"/><path class="cls-33" d="M105,37.86a2.56,2.56,0,0,1-2.48-2.62V14.6a2.48,2.48,0,1,1,5-.21V35.24A2.55,2.55,0,0,1,105,37.86Z"/><path class="cls-34" d="M104.9,37.75a2.54,2.54,0,0,1-2.48-2.6V14.5a2.48,2.48,0,0,1,5-.3,1.5,1.5,0,0,1,0,.3V35.15A2.54,2.54,0,0,1,104.9,37.75Z"/><path class="cls-35" d="M104.8,37.65a2.54,2.54,0,0,1-2.47-2.6V14.41a2.47,2.47,0,0,1,4.94-.3,1.5,1.5,0,0,1,0,.3V35.05A2.53,2.53,0,0,1,104.8,37.65Z"/><path class="cls-42" d="M104.8,37.81a2.69,2.69,0,0,1-2.61-2.76V14.41a2.62,2.62,0,0,1,5.23-.22V35.05A2.69,2.69,0,0,1,104.8,37.81Z"/><path class="cls-43" d="M104.8,37.19a2.08,2.08,0,0,1-2-2.14V14.41a2,2,0,1,1,4.07-.27V35.05A2.08,2.08,0,0,1,104.8,37.19Z"/><path class="cls-2" d="M118.57,41.48a6.27,6.27,0,0,1-6.1-6.43V14.41A6.27,6.27,0,0,1,118.57,8h13.07a6.27,6.27,0,0,1,6.1,6.42,6.31,6.31,0,0,1-4.63,6.24,6.69,6.69,0,0,1,0,8.16,6.47,6.47,0,0,1-1.47,12.67Z"/><path class="cls-3" d="M118.57,40.86a5.67,5.67,0,0,1-5.52-5.81V14.41a5.68,5.68,0,0,1,5.52-5.81h13.07a5.68,5.68,0,0,1,5.52,5.81,5.7,5.7,0,0,1-5.32,5.81,6,6,0,0,1,.58,8.45,5.29,5.29,0,0,1-.58.58,5.82,5.82,0,0,1-.2,11.61Z"/><path class="cls-4" d="M134.52,35.26H124.06V30.44h7.19a2.75,2.75,0,0,0,0-5.5h-7.19V20.12h10.46a2.75,2.75,0,0,0,0-5.5H121.45a2.7,2.7,0,0,0-2.62,2.75V38a2.7,2.7,0,0,0,2.62,2.75h13.07a2.75,2.75,0,0,0,0-5.5Z"/><path class="cls-5" d="M121.35,40.66a2.69,2.69,0,0,1-2.61-2.74V17.27a2.69,2.69,0,0,1,2.61-2.75h13.08a2.75,2.75,0,0,1,0,5.5H124v4.83h7.19a2.75,2.75,0,0,1,0,5.49H124v4.83h10.46a2.75,2.75,0,0,1,0,5.49Z"/><path class="cls-6" d="M121.26,40.56a2.66,2.66,0,0,1-2.6-2.74V17.18a2.66,2.66,0,0,1,2.6-2.74h13.08a2.74,2.74,0,0,1,0,5.48H123.87v4.84h7.2a2.74,2.74,0,0,1,0,5.48h-7.2v4.84h10.47a2.74,2.74,0,0,1,0,5.48Z"/><path class="cls-7" d="M121.17,40.46a2.67,2.67,0,0,1-2.6-2.73V17.08a2.67,2.67,0,0,1,2.6-2.73h13.07a2.74,2.74,0,0,1,0,5.48H123.77v4.84H131a2.74,2.74,0,0,1,0,5.47h-7.21V35h10.47a2.74,2.74,0,0,1,0,5.47Z"/><path class="cls-8" d="M121.08,40.36a2.66,2.66,0,0,1-2.6-2.73V17a2.67,2.67,0,0,1,2.6-2.74h13.07a2.74,2.74,0,0,1,0,5.47H123.67v4.86h7.21a2.73,2.73,0,0,1,0,5.46h-7.21V34.9h10.48a2.73,2.73,0,0,1,0,5.46Z"/><path class="cls-9" d="M121,40.26a2.66,2.66,0,0,1-2.59-2.73h0V16.89A2.67,2.67,0,0,1,121,14.16h13.08a2.73,2.73,0,0,1,0,5.46H123.57v4.86h7.22a2.73,2.73,0,0,1,0,5.46h-7.22v4.87h10.49a2.73,2.73,0,0,1,0,5.45Z"/><path class="cls-10" d="M120.89,40.16a2.66,2.66,0,0,1-2.59-2.72V16.79a2.67,2.67,0,0,1,2.59-2.72H134a2.73,2.73,0,0,1,0,5.45H123.48v4.87h7.21a2.73,2.73,0,0,1,0,5.45h-7.21v4.9H134a2.73,2.73,0,0,1,0,5.45Z"/><path class="cls-11" d="M120.8,40.06a2.64,2.64,0,0,1-2.58-2.72h0V16.7A2.65,2.65,0,0,1,120.8,14h13.07a2.72,2.72,0,0,1,0,5.44H123.38V24.3h7.22a2.72,2.72,0,0,1,0,5.44h-7.22v4.89h10.49a2.72,2.72,0,0,1,0,5.43Z"/><path class="cls-12" d="M120.7,40a2.65,2.65,0,0,1-2.55-2.71V16.6a2.64,2.64,0,0,1,2.55-2.71h13.08a2.71,2.71,0,0,1,0,5.42h-10.5v4.9h7.23a2.72,2.72,0,0,1,0,5.43h-7.23v4.89h10.5a2.72,2.72,0,0,1,0,5.43Z"/><path class="cls-13" d="M120.61,39.86A2.63,2.63,0,0,1,118,37.15h0V16.51a2.64,2.64,0,0,1,2.57-2.71h13.08a2.71,2.71,0,0,1,0,5.42H123.18v4.9h7.24a2.71,2.71,0,0,1,0,5.42h-7.24v4.91h10.51a2.71,2.71,0,0,1,0,5.41Z"/><path class="cls-14" d="M120.52,39.76a2.64,2.64,0,0,1-2.57-2.7h0V16.41a2.64,2.64,0,0,1,2.57-2.7h13.07a2.71,2.71,0,0,1,0,5.41h-10.5V24h7.23a2.71,2.71,0,0,1,0,5.41h-7.23v4.91h10.5a2.71,2.71,0,0,1,0,5.41Z"/><path class="cls-15" d="M120.43,39.66a2.64,2.64,0,0,1-2.57-2.7V16.32a2.64,2.64,0,0,1,2.56-2.7H133.5a2.7,2.7,0,0,1,0,5.4H123v4.92h7.24a2.7,2.7,0,0,1,0,5.4H123v4.94H133.5a2.7,2.7,0,0,1,0,5.39Z"/><path class="cls-16" d="M120.33,39.56a2.62,2.62,0,0,1-2.55-2.69V16.21a2.63,2.63,0,0,1,2.55-2.7h13.08a2.7,2.7,0,0,1,0,5.39H122.89v5h7.25a2.7,2.7,0,0,1,0,5.39h-7.25v4.93h10.52a2.7,2.7,0,0,1,0,5.39Z"/><path class="cls-17" d="M120.24,39.46a2.62,2.62,0,0,1-2.55-2.69V16.13a2.62,2.62,0,0,1,2.55-2.69h13.07a2.69,2.69,0,0,1,0,5.38H122.78v4.94H130a2.69,2.69,0,0,1,0,5.38h-7.26v5H133.3a2.69,2.69,0,0,1,0,5.37Z"/><path class="cls-18" d="M120.15,39.37a2.61,2.61,0,0,1-2.55-2.68V16a2.61,2.61,0,0,1,2.55-2.68h13.07a2.69,2.69,0,0,1,0,5.37H122.7v5H130A2.69,2.69,0,0,1,130,29H122.7v5h10.52a2.69,2.69,0,0,1,0,5.37Z"/><path class="cls-19" d="M120.06,39.26a2.61,2.61,0,0,1-2.55-2.68V15.94a2.61,2.61,0,0,1,2.55-2.68h13.07a2.68,2.68,0,0,1,0,5.35H122.6v5h7.26a2.68,2.68,0,0,1,0,5.36H122.6v5h10.53a2.68,2.68,0,0,1,0,5.36Z"/><path class="cls-20" d="M120,39.16a2.61,2.61,0,0,1-2.54-2.67V15.84A2.6,2.6,0,0,1,120,13.17H133a2.68,2.68,0,0,1,0,5.35H122.5v5h7.27a2.68,2.68,0,0,1,0,5.35H122.5v5H133a2.68,2.68,0,0,1,0,5.35Z"/><path class="cls-21" d="M119.87,39.06a2.61,2.61,0,0,1-2.54-2.67V15.74a2.61,2.61,0,0,1,2.54-2.67h13.07a2.67,2.67,0,0,1,0,5.34H122.41v5h7.26a2.67,2.67,0,0,1,0,5.34h-7.26v5h10.53a2.67,2.67,0,0,1,0,5.34Z"/><path class="cls-22" d="M119.77,39a2.61,2.61,0,0,1-2.55-2.66h0V15.65A2.61,2.61,0,0,1,119.75,13h13.08a2.66,2.66,0,0,1,0,5.32H122.32v5h7.28a2.67,2.67,0,0,1,0,5.33h-7.28v5h10.54a2.67,2.67,0,0,1,0,5.33Z"/><path class="cls-23" d="M119.68,38.86a2.59,2.59,0,0,1-2.52-2.66V15.56a2.59,2.59,0,0,1,2.52-2.66h13.08a2.66,2.66,0,0,1,0,5.32H122.21v5h7.28a2.66,2.66,0,0,1,0,5.31h-7.28v5h10.55a2.66,2.66,0,0,1,0,5.32Z"/><path class="cls-24" d="M119.59,38.76a2.59,2.59,0,0,1-2.52-2.63V15.46a2.58,2.58,0,0,1,2.52-2.65h13.07a2.65,2.65,0,0,1,0,5.3H122.11v5h7.29a2.66,2.66,0,0,1,0,5.31h-7.29v5h10.55a2.66,2.66,0,0,1,0,5.31Z"/><path class="cls-25" d="M119.5,38.66A2.6,2.6,0,0,1,117,36V15.37a2.59,2.59,0,0,1,2.52-2.65h13.07a2.65,2.65,0,0,1,0,5.29H122v5h7.29a2.65,2.65,0,0,1,0,5.3H122v5h10.56a2.65,2.65,0,0,1,0,5.3Z"/><path class="cls-26" d="M119.4,38.56a2.59,2.59,0,0,1-2.51-2.64V15.28a2.59,2.59,0,0,1,2.51-2.65h13.08a2.65,2.65,0,0,1,0,5.29H121.91v5h7.3a2.64,2.64,0,0,1,0,5.28h-7.3v5h10.57a2.65,2.65,0,0,1,0,5.29Z"/><path class="cls-27" d="M119.31,38.45a2.6,2.6,0,0,1-2.51-2.65V15.18a2.58,2.58,0,0,1,2.51-2.64h13.08a2.64,2.64,0,0,1,0,5.27H121.82v5.05h7.3a2.64,2.64,0,0,1,0,5.28h-7.3v5h10.57a2.64,2.64,0,0,1,0,5.28Z"/><path class="cls-28" d="M119.22,38.36a2.57,2.57,0,0,1-2.5-2.64V15.08a2.57,2.57,0,0,1,2.5-2.64h13.07a2.64,2.64,0,0,1,0,5.27H121.72v5.06H129A2.63,2.63,0,0,1,129,28h-7.31v5.06h10.57a2.64,2.64,0,0,1,0,5.27Z"/><path class="cls-29" d="M119.12,38.26a2.57,2.57,0,0,1-2.49-2.63V15a2.57,2.57,0,0,1,2.49-2.63H132.2a2.63,2.63,0,0,1,0,5.26H121.62v5.08h7.31a2.63,2.63,0,0,1,0,5.26h-7.31V33H132.2a2.63,2.63,0,0,1,0,5.26Z"/><path class="cls-30" d="M119,38.16a2.57,2.57,0,0,1-2.49-2.63V14.89A2.57,2.57,0,0,1,119,12.26h13.08a2.63,2.63,0,0,1,0,5.25H121.52v5.1h7.32a2.63,2.63,0,0,1,0,5.25h-7.32v5h10.59a2.63,2.63,0,0,1,0,5.25Z"/><path class="cls-31" d="M118.94,38.06a2.56,2.56,0,0,1-2.49-2.62V14.82a2.56,2.56,0,0,1,2.49-2.62H132a2.62,2.62,0,0,1,0,5.24H121.43v5.09h7.31a2.62,2.62,0,0,1,0,5.24h-7.31v5.1H132a2.62,2.62,0,0,1,0,5.24Z"/><path class="cls-32" d="M118.85,38a2.55,2.55,0,0,1-2.49-2.61V14.7a2.56,2.56,0,0,1,2.49-2.62h13.07a2.62,2.62,0,0,1,0,5.23H121.33v5.1h7.32a2.62,2.62,0,0,1,0,5.23h-7.32v5.1h10.59a2.61,2.61,0,0,1,0,5.22Z"/><path class="cls-33" d="M118.75,37.86a2.56,2.56,0,0,1-2.45-2.62V14.6A2.55,2.55,0,0,1,118.78,12h13.07a2.61,2.61,0,0,1,0,5.22H121.23v5.1h7.33a2.61,2.61,0,0,1,0,5.21h-7.33v5.1h10.6a2.61,2.61,0,0,1,0,5.22Z"/><path class="cls-34" d="M118.66,37.75a2.53,2.53,0,0,1-2.47-2.6V14.5a2.54,2.54,0,0,1,2.47-2.6h13.08a2.61,2.61,0,0,1,0,5.21h-10.6v5.12h7.33a2.61,2.61,0,0,1,0,5.21h-7.33v5.09h10.6a2.61,2.61,0,0,1,0,5.21Z"/><path class="cls-35" d="M118.57,37.65a2.54,2.54,0,0,1-2.47-2.6V14.41a2.54,2.54,0,0,1,2.47-2.6h13.07a2.6,2.6,0,0,1,0,5.2H121v5.13h7.33a2.6,2.6,0,0,1,0,5.19H121v5.1h10.6a2.6,2.6,0,0,1,0,5.2Z"/><path class="cls-44" d="M131.64,32.3H121.18V27.49h7.19a2.76,2.76,0,0,0,0-5.51h-7.19V17.16h10.46a2.75,2.75,0,0,0,0-5.5H118.57A2.69,2.69,0,0,0,116,14.41V35.05a2.69,2.69,0,0,0,2.62,2.76h13.07a2.76,2.76,0,0,0,0-5.51Z"/><path class="cls-45" d="M118.57,37.19a2.1,2.1,0,0,1-2-2.14V14.41a2.1,2.1,0,0,1,2-2.14h13.07a2.14,2.14,0,0,1,0,4.28h-11v6h7.77a2.14,2.14,0,0,1,0,4.28H120.6v6h11a2.14,2.14,0,0,1,0,4.28Z"/><path class="cls-2" d="M47.63,41.48a6.28,6.28,0,0,1-6.11-6.43V14.41A6.28,6.28,0,0,1,47.63,8h6.53c8.46,0,14.6,7,14.6,16.75s-6.14,16.74-14.6,16.74Zm6.53-12.85c2.09,0,2.4-2.44,2.4-3.89s-.31-3.9-2.4-3.9h-.41v7.79Z"/><path class="cls-3" d="M47.63,40.86a5.67,5.67,0,0,1-5.52-5.81V14.41A5.68,5.68,0,0,1,47.63,8.6h6.53c8.13,0,14,6.78,14,16.14s-5.89,16.12-14,16.12Zm6.53-11.62c2.69,0,3-3.15,3-4.5s-.29-4.52-3-4.52h-1v9Z"/><path class="cls-4" d="M53.12,35.26H57c4.35,0,5.89-4.08,5.89-7.57S61.39,20.12,57,20.12H53.12ZM57,40.76H50.5A2.68,2.68,0,0,1,47.89,38V17.37a2.67,2.67,0,0,1,2.61-2.75H57c6.54,0,11.12,5.37,11.12,13.07S63.59,40.76,57,40.76Z"/><path class="cls-5" d="M53,35.17H57c4.35,0,5.89-4.08,5.89-7.58S61.3,20,57,20H53Zm-2.61,5.49a2.68,2.68,0,0,1-2.61-2.74V17.27a2.69,2.69,0,0,1,2.61-2.75H57c6.54,0,11.12,5.38,11.12,13.07S63.5,40.66,57,40.66Z"/><path class="cls-6" d="M52.93,35.08h3.93c4.35,0,5.89-4.09,5.89-7.58s-1.54-7.59-5.89-7.59H52.93Zm-2.61,5.48a2.68,2.68,0,0,1-2.6-2.74V17.18a2.68,2.68,0,0,1,2.61-2.74h6.54C63.4,14.44,68,19.81,68,27.5S63.42,40.56,56.87,40.56Z"/><path class="cls-7" d="M52.82,35h3.93c4.36,0,5.9-4.09,5.9-7.59s-1.53-7.58-5.89-7.58H52.82Zm-2.59,5.47a2.66,2.66,0,0,1-2.6-2.73V17.08a2.67,2.67,0,0,1,2.6-2.73h6.53c6.54,0,11.12,5.37,11.12,13.06S63.32,40.47,56.76,40.47Z"/><path class="cls-8" d="M52.73,34.9h3.94c4.36,0,5.9-4.09,5.9-7.59s-1.54-7.59-5.9-7.59H52.73Zm-2.6,5.46a2.66,2.66,0,0,1-2.59-2.73V17a2.67,2.67,0,0,1,2.59-2.74h6.54c6.53,0,11.1,5.37,11.1,13.06S63.2,40.36,56.67,40.36Z"/><path class="cls-9" d="M52.64,34.81h3.94c4.36,0,5.91-4.09,5.91-7.6s-1.55-7.59-5.91-7.59H52.64ZM50,40.26a2.66,2.66,0,0,1-2.59-2.73h0V16.89A2.66,2.66,0,0,1,50,14.16h6.54c6.53,0,11.09,5.37,11.09,13.05s-4.56,13-11.09,13Z"/><path class="cls-10" d="M52.53,34.74h4c4.36,0,5.91-4.09,5.91-7.6s-1.55-7.6-5.91-7.6h-4ZM50,40.16a2.66,2.66,0,0,1-2.59-2.72V16.79A2.66,2.66,0,0,1,50,14.07h6.54c6.52,0,11.08,5.38,11.08,13.05s-4.56,13-11.08,13Z"/><path class="cls-11" d="M52.44,34.63h4c4.37,0,5.92-4.1,5.92-7.61s-1.55-7.6-5.92-7.6h-4Zm-2.58,5.43a2.65,2.65,0,0,1-2.6-2.7V16.7A2.66,2.66,0,0,1,49.84,14h6.54c6.52,0,11.08,5.37,11.08,13s-4.56,13-11.08,13Z"/><path class="cls-12" d="M52.36,34.53h4c4.37,0,5.92-4.09,5.92-7.6s-1.55-7.61-5.92-7.61h-4ZM49.76,40a2.64,2.64,0,0,1-2.57-2.71V16.6a2.64,2.64,0,0,1,2.57-2.71H56.3c6.52,0,11.07,5.36,11.07,13S62.82,40,56.3,40Z"/><path class="cls-13" d="M52.24,34.45h4c4.37,0,5.92-4.11,5.92-7.62s-1.55-7.61-5.92-7.61h-4Zm-2.57,5.41a2.64,2.64,0,0,1-2.57-2.71V16.51a2.64,2.64,0,0,1,2.57-2.71h6.54c6.52,0,11.07,5.36,11.07,13s-4.55,13-11.07,13Z"/><path class="cls-14" d="M52.14,34.35h4c4.37,0,5.93-4.1,5.93-7.61s-1.56-7.62-5.93-7.62h-4Zm-2.56,5.41A2.64,2.64,0,0,1,47,37.06h0V16.41a2.64,2.64,0,0,1,2.57-2.7h6.54c6.51,0,11.06,5.36,11.06,13s-4.55,13-11.06,13Z"/><path class="cls-15" d="M52.05,34.28h4c4.38,0,5.94-4.11,5.94-7.63S60.4,19,56,19h-4Zm-2.57,5.38A2.64,2.64,0,0,1,46.92,37V16.32a2.64,2.64,0,0,1,2.56-2.7H56c6.51,0,11.06,5.36,11.06,13s-4.55,13-11.06,13Z"/><path class="cls-16" d="M52,34.17h4c4.38,0,5.94-4.11,5.94-7.62s-1.56-7.63-5.94-7.63H52Zm-2.56,5.39a2.63,2.63,0,0,1-2.56-2.69V16.21a2.64,2.64,0,0,1,2.56-2.7h6.54c6.49,0,11.05,5.35,11.05,13s-4.54,13-11.05,13Z"/><path class="cls-17" d="M51.85,34.09h4c4.38,0,5.94-4.12,5.94-7.64s-1.55-7.63-5.94-7.63h-4ZM49.3,39.46a2.62,2.62,0,0,1-2.55-2.69V16.13a2.61,2.61,0,0,1,2.54-2.7h6.55c6.48,0,11,5.35,11,13s-4.55,13-11,13Z"/><path class="cls-18" d="M51.76,34h4c4.39,0,5.95-4.11,5.95-7.64s-1.56-7.63-5.95-7.63h-4Zm-2.55,5.38a2.61,2.61,0,0,1-2.55-2.68V16a2.61,2.61,0,0,1,2.55-2.68h6.53c6.49,0,11.05,5.35,11.05,13s-4.54,13-11.05,13Z"/><path class="cls-19" d="M51.66,33.9h4c4.39,0,6-4.11,6-7.64s-1.57-7.65-6-7.65h-4Zm-2.55,5.36a2.62,2.62,0,0,1-2.54-2.67V15.94a2.61,2.61,0,0,1,2.54-2.68h6.54c6.49,0,11,5.35,11,13s-4.54,13-11,13Z"/><path class="cls-20" d="M51.56,33.81h4c4.4,0,6-4.12,6-7.65s-1.56-7.64-6-7.64h-4ZM49,39.16a2.62,2.62,0,0,1-2.54-2.67V15.84A2.61,2.61,0,0,1,49,13.17h6.54c6.49,0,11,5.34,11,13s-4.54,13-11,13Z"/><path class="cls-21" d="M51.46,33.72h4c4.39,0,6-4.12,6-7.65s-1.57-7.65-6-7.65h-4Zm-2.53,5.34a2.61,2.61,0,0,1-2.54-2.67V15.74a2.61,2.61,0,0,1,2.54-2.67h6.54c6.48,0,11,5.35,11,13S62,39,55.47,39Z"/><path class="cls-22" d="M51.37,33.63h4c4.41,0,6-4.12,6-7.66s-1.57-7.66-6-7.66h-4ZM48.84,39A2.61,2.61,0,0,1,46.3,36.3V15.65A2.6,2.6,0,0,1,48.84,13h6.53c6.49,0,11,5.34,11,13s-4.53,13-11,13Z"/><path class="cls-23" d="M51.27,33.54h4c4.41,0,6-4.13,6-7.66s-1.56-7.66-6-7.66h-4Zm-2.53,5.32a2.61,2.61,0,0,1-2.53-2.66V15.56a2.59,2.59,0,0,1,2.53-2.66h6.54c6.48,0,11,5.33,11,13s-4.53,13-11,13Z"/><path class="cls-24" d="M51.17,33.45h4c4.42,0,6-4.13,6-7.67s-1.56-7.67-6-7.67h-4Zm-2.52,5.31a2.58,2.58,0,0,1-2.52-2.63V15.46a2.58,2.58,0,0,1,2.52-2.65h6.53c6.49,0,11,5.33,11,13s-4.53,13-11,13Z"/><path class="cls-25" d="M51.07,33.35h4c4.42,0,6-4.13,6-7.67S59.51,18,55.09,18h-4Zm-2.52,5.3A2.59,2.59,0,0,1,46,36V15.37a2.58,2.58,0,0,1,2.51-2.65h6.54c6.49,0,11,5.33,11,13s-4.53,13-11,13Z"/><path class="cls-26" d="M51,33.27h4c4.42,0,6-4.14,6-7.68s-1.57-7.68-6-7.68H51Zm-2.51,5.29a2.59,2.59,0,0,1-2.52-2.64V15.28a2.6,2.6,0,0,1,2.52-2.65H55c6.49,0,11,5.34,11,13s-4.53,13-11,13Z"/><path class="cls-27" d="M50.87,33.18h4c4.42,0,6-4.14,6-7.68s-1.57-7.69-6-7.69h-4Zm-2.5,5.27a2.59,2.59,0,0,1-2.5-2.63V15.18a2.57,2.57,0,0,1,2.51-2.64h6.53c6.48,0,11,5.32,11,13s-4.52,13-11,13Z"/><path class="cls-28" d="M50.78,33.09h4c4.43,0,6-4.14,6-7.69s-1.57-7.69-6-7.69h-4Zm-2.5,5.27a2.59,2.59,0,0,1-2.51-2.64V15.08a2.59,2.59,0,0,1,2.51-2.64h6.53c6.49,0,11,5.33,11,13s-4.52,13-11,13Z"/><path class="cls-29" d="M50.68,33h4c4.43,0,6-4.15,6-7.69s-1.59-7.71-6-7.71h-4Zm-2.49,5.26a2.57,2.57,0,0,1-2.5-2.63V15a2.57,2.57,0,0,1,2.5-2.63h6.53c6.49,0,11,5.33,11,13s-4.53,13-11,13Z"/><path class="cls-30" d="M50.58,32.91h4.05c4.43,0,6-4.15,6-7.7s-1.57-7.7-6-7.7H50.58Zm-2.49,5.25a2.57,2.57,0,0,1-2.49-2.63V14.89a2.57,2.57,0,0,1,2.49-2.63h6.54c6.48,0,11,5.33,11,13s-4.52,12.94-11,12.94Z"/><path class="cls-31" d="M50.5,32.82h4c4.44,0,6-4.15,6-7.7s-1.58-7.71-6-7.71h-4ZM48,38.06a2.56,2.56,0,0,1-2.49-2.62V14.82A2.56,2.56,0,0,1,48,12.2h6.52c6.48,0,11,5.32,11,12.94S61,38.08,54.54,38.08Z"/><path class="cls-32" d="M50.39,32.73h4c4.44,0,6-4.17,6-7.71s-1.58-7.71-6-7.71h-4ZM47.9,38a2.55,2.55,0,0,1-2.49-2.6h0V14.7a2.55,2.55,0,0,1,2.48-2.62h6.55c6.49,0,11,5.32,11,12.94S60.91,38,54.44,38Z"/><path class="cls-33" d="M50.29,32.64h4.06c4.44,0,6-4.17,6-7.71s-1.57-7.72-6-7.72H50.29Zm-2.48,5.22a2.56,2.56,0,0,1-2.48-2.62V14.6A2.56,2.56,0,0,1,47.81,12h6.54c6.49,0,11,5.32,11,12.94s-4.52,12.93-11,12.93Z"/><path class="cls-34" d="M50.19,32.55h4.07c4.45,0,6-4.17,6-7.72s-1.57-7.7-6-7.7H50.19Zm-2.47,5.2a2.54,2.54,0,0,1-2.47-2.6V14.5a2.54,2.54,0,0,1,2.47-2.6h6.54c6.46,0,11,5.32,11,12.93s-4.53,12.92-11,12.92Z"/><path class="cls-35" d="M50.1,32.45h4.06c4.45,0,6-4.17,6-7.71S58.61,17,54.16,17H50.1Zm-2.47,5.2a2.53,2.53,0,0,1-2.47-2.6V14.41a2.54,2.54,0,0,1,2.47-2.6h6.53c6.46,0,11,5.32,11,12.93s-4.51,12.91-11,12.91Z"/><path class="cls-46" d="M54.16,37.81H47.63A2.7,2.7,0,0,1,45,35.06h0V14.41a2.68,2.68,0,0,1,2.61-2.75h6.54c6.55,0,11.12,5.37,11.12,13.08S60.7,37.81,54.16,37.81ZM50.24,32.3h3.92c4.35,0,5.89-4.08,5.89-7.56s-1.54-7.58-5.89-7.58H50.24Z"/><path class="cls-47" d="M47.63,37.19a2.08,2.08,0,0,1-2-2.14V14.41a2.09,2.09,0,0,1,2-2.14h6.53c6.2,0,10.54,5.13,10.54,12.47S60.36,37.19,54.16,37.19Zm2-4.28h4.5c4.78,0,6.47-4.4,6.47-8.17s-1.69-8.19-6.47-8.19h-4.5Z"/><path class="cls-2" d="M76.17,41.48a6.27,6.27,0,0,1-6.1-6.43V14.41A6.27,6.27,0,0,1,76.17,8h6.54c8.46,0,14.6,7,14.6,16.75s-6.14,16.74-14.6,16.74Zm6.54-12.85c2.09,0,2.4-2.44,2.4-3.89s-.32-3.9-2.4-3.9h-.44v7.79Z"/><path class="cls-3" d="M76.17,40.86a5.68,5.68,0,0,1-5.52-5.81V14.41A5.68,5.68,0,0,1,76.17,8.6h6.54c8.12,0,14,6.78,14,16.14s-5.92,16.12-14,16.12Zm6.54-11.62c2.69,0,3-3.15,3-4.5s-.29-4.52-3-4.52h-1v9Z"/><path class="cls-4" d="M81.66,35.26h3.93c4.34,0,5.88-4.08,5.88-7.57s-1.54-7.57-5.88-7.57H81.66Zm3.93,5.5H79.05A2.67,2.67,0,0,1,76.45,38V17.37a2.67,2.67,0,0,1,2.61-2.75H85.6c6.54,0,11.12,5.37,11.12,13.07S92.13,40.76,85.59,40.76Z"/><path class="cls-5" d="M81.55,35.17h3.93c4.34,0,5.89-4.08,5.89-7.58S89.82,20,85.48,20H81.55Zm-2.61,5.49a2.67,2.67,0,0,1-2.61-2.74V17.27a2.68,2.68,0,0,1,2.61-2.75h6.54C92,14.52,96.6,19.9,96.6,27.59S92,40.66,85.48,40.66Z"/><path class="cls-6" d="M81.47,35.08H85.4c4.35,0,5.9-4.09,5.9-7.58s-1.55-7.59-5.9-7.59H81.47Zm-2.6,5.48a2.67,2.67,0,0,1-2.61-2.74V17.18a2.67,2.67,0,0,1,2.61-2.74H85.4c6.54,0,11.12,5.37,11.12,13.06S92,40.56,85.4,40.56Z"/><path class="cls-7" d="M81.37,35h3.94c4.35,0,5.9-4.09,5.9-7.59s-1.55-7.58-5.9-7.58H81.37Zm-2.6,5.47a2.67,2.67,0,0,1-2.6-2.73V17.08a2.67,2.67,0,0,1,2.6-2.73h6.54c6.53,0,11.09,5.37,11.09,13.06S91.84,40.47,85.31,40.47Z"/><path class="cls-8" d="M81.27,34.9h4c4.35,0,5.9-4.09,5.9-7.59s-1.55-7.59-5.9-7.59h-4Zm-2.59,5.46a2.67,2.67,0,0,1-2.6-2.73V17a2.68,2.68,0,0,1,2.6-2.74h6.54c6.53,0,11.09,5.37,11.09,13.06S91.74,40.36,85.22,40.36Z"/><path class="cls-9" d="M81.18,34.81h3.94c4.36,0,5.91-4.09,5.91-7.6s-1.55-7.59-5.91-7.59H81.18Zm-2.59,5.45A2.65,2.65,0,0,1,76,37.54V16.89a2.66,2.66,0,0,1,2.59-2.73h6.54c6.52,0,11.08,5.37,11.08,13.05s-4.56,13-11.08,13Z"/><path class="cls-10" d="M81.08,34.74h4c4.36,0,5.91-4.09,5.91-7.6s-1.55-7.6-5.91-7.6h-4ZM78.5,40.19a2.67,2.67,0,0,1-2.59-2.73V16.79a2.66,2.66,0,0,1,2.59-2.72H85c6.52,0,11.08,5.37,11.08,13.05s-4.56,13-11.08,13Z"/><path class="cls-11" d="M81,34.63h4c4.36,0,5.92-4.1,5.92-7.61s-1.56-7.6-5.92-7.6H81ZM78.4,40.06a2.65,2.65,0,0,1-2.58-2.72h0V16.7A2.66,2.66,0,0,1,78.4,14h6.54C91.46,14,96,19.35,96,27s-4.56,13-11.08,13Z"/><path class="cls-12" d="M80.89,34.53h4c4.37,0,5.92-4.09,5.92-7.6s-1.55-7.61-5.92-7.61h-4ZM78.3,40a2.65,2.65,0,0,1-2.58-2.71V16.6a2.65,2.65,0,0,1,2.58-2.71h6.54c6.53,0,11.07,5.36,11.07,13S91.36,40,84.84,40Z"/><path class="cls-13" d="M80.79,34.45h4c4.38,0,5.93-4.11,5.93-7.62s-1.55-7.61-5.93-7.61h-4Zm-2.57,5.41a2.64,2.64,0,0,1-2.58-2.71V16.51a2.65,2.65,0,0,1,2.58-2.71h6.53c6.52,0,11.07,5.36,11.07,13s-4.54,13-11.07,13Z"/><path class="cls-14" d="M80.69,34.35h4c4.38,0,5.93-4.1,5.93-7.61S89,19.12,84.66,19.12h-4Zm-2.57,5.41a2.65,2.65,0,0,1-2.57-2.7V16.41a2.65,2.65,0,0,1,2.57-2.7h6.54c6.52,0,11.07,5.36,11.07,13s-4.55,13-11.07,13Z"/><path class="cls-15" d="M80.59,34.28h4c4.39,0,5.94-4.11,5.94-7.63S89,19,84.56,19h-4ZM78,39.67A2.65,2.65,0,0,1,75.46,37V16.32A2.65,2.65,0,0,1,78,13.62h6.53c6.52,0,11.07,5.36,11.07,13s-4.55,13-11.07,13Z"/><path class="cls-16" d="M80.5,34.17h4c4.39,0,5.94-4.11,5.94-7.62s-1.55-7.63-5.94-7.63h-4Zm-2.56,5.39a2.63,2.63,0,0,1-2.56-2.69V16.21a2.63,2.63,0,0,1,2.56-2.7h6.53c6.51,0,11.06,5.35,11.06,13s-4.55,13-11.06,13Z"/><path class="cls-17" d="M80.4,34.09h4c4.39,0,5.94-4.12,5.94-7.64s-1.55-7.63-5.94-7.63h-4Zm-2.56,5.37a2.62,2.62,0,0,1-2.55-2.69V16.13a2.61,2.61,0,0,1,2.54-2.7h6.55c6.49,0,11.05,5.35,11.05,13s-4.54,13-11.05,13Z"/><path class="cls-18" d="M80.3,34h4c4.39,0,5.95-4.11,5.95-7.64s-1.56-7.63-5.95-7.63h-4Zm-2.55,5.38a2.61,2.61,0,0,1-2.55-2.68V16a2.61,2.61,0,0,1,2.55-2.68h6.54c6.48,0,11,5.35,11,13s-4.53,13-11,13Z"/><path class="cls-19" d="M80.2,33.9h4c4.4,0,6-4.11,6-7.64s-1.56-7.65-6-7.65h-4Zm-2.54,5.36a2.62,2.62,0,0,1-2.55-2.67V15.94a2.61,2.61,0,0,1,2.55-2.68h6.53c6.49,0,11,5.35,11,13s-4.54,13-11,13Z"/><path class="cls-20" d="M80.1,33.81h4c4.4,0,6-4.12,6-7.65s-1.56-7.64-6-7.64h-4Zm-2.54,5.35A2.62,2.62,0,0,1,75,36.49V15.84a2.61,2.61,0,0,1,2.54-2.67H84.1c6.49,0,11,5.34,11,13s-4.54,13-11,13Z"/><path class="cls-21" d="M80,33.72h4c4.4,0,6-4.12,6-7.65s-1.56-7.65-6-7.65H80Zm-2.53,5.34a2.6,2.6,0,0,1-2.53-2.67V15.74a2.6,2.6,0,0,1,2.53-2.67H84c6.48,0,11,5.35,11,13S90.5,39,84,39Z"/><path class="cls-22" d="M79.91,33.63h4c4.4,0,6-4.12,6-7.66s-1.56-7.66-6-7.66h-4ZM77.38,39a2.59,2.59,0,0,1-2.53-2.66V15.65A2.6,2.6,0,0,1,77.38,13h6.54c6.48,0,11,5.34,11,13s-4.53,13-11,13Z"/><path class="cls-23" d="M79.81,33.54h4c4.41,0,6-4.13,6-7.66s-1.57-7.66-6-7.66h-4Zm-2.52,5.32a2.59,2.59,0,0,1-2.53-2.66V15.56a2.58,2.58,0,0,1,2.53-2.66h6.53c6.49,0,11,5.33,11,13s-4.54,13-11,13Z"/><path class="cls-24" d="M79.69,33.45h4c4.41,0,6-4.13,6-7.67s-1.57-7.67-6-7.67h-4Zm-2.5,5.31a2.59,2.59,0,0,1-2.52-2.63V15.46a2.6,2.6,0,0,1,2.52-2.65h6.54c6.49,0,11,5.33,11,13s-4.53,13-11,13Z"/><path class="cls-25" d="M79.62,33.35h4c4.41,0,6-4.13,6-7.67S88,18,83.64,18h-4ZM77.1,38.66A2.59,2.59,0,0,1,74.6,36V15.37a2.57,2.57,0,0,1,2.51-2.65h6.54c6.49,0,11,5.33,11,13s-4.52,13-11,13Z"/><path class="cls-26" d="M79.52,33.27h4c4.43,0,6-4.14,6-7.68s-1.56-7.68-6-7.68h-4ZM77,38.56a2.58,2.58,0,0,1-2.51-2.64V15.28A2.58,2.58,0,0,1,77,12.63h6.53c6.49,0,11,5.34,11,13s-4.52,13-11,13Z"/><path class="cls-27" d="M79.42,33.18h4c4.42,0,6-4.14,6-7.68s-1.57-7.69-6-7.69h-4Zm-2.51,5.27a2.57,2.57,0,0,1-2.5-2.65V15.18a2.56,2.56,0,0,1,2.5-2.64h6.54c6.49,0,11,5.32,11,13s-4.53,13-11,13Z"/><path class="cls-28" d="M79.32,33.09h4c4.42,0,6-4.14,6-7.69s-1.58-7.69-6-7.69h-4Zm-2.5,5.27a2.57,2.57,0,0,1-2.5-2.64V15.08a2.57,2.57,0,0,1,2.5-2.64h6.54c6.49,0,11,5.33,11,13s-4.52,13-11,13Z"/><path class="cls-29" d="M79.23,33h4c4.43,0,6-4.15,6-7.69s-1.57-7.71-6-7.71h-4Zm-2.5,5.26a2.57,2.57,0,0,1-2.5-2.63V15a2.57,2.57,0,0,1,2.5-2.63h6.54c6.48,0,11,5.33,11,13s-4.52,13-11,13Z"/><path class="cls-30" d="M79.13,32.91h4c4.43,0,6-4.15,6-7.7s-1.58-7.7-6-7.7h-4Zm-2.49,5.25a2.57,2.57,0,0,1-2.51-2.62h0V14.89a2.57,2.57,0,0,1,2.5-2.63h6.53c6.49,0,11,5.33,11,13s-4.53,12.94-11,12.94Z"/><path class="cls-31" d="M79,32.82h4c4.44,0,6-4.15,6-7.7s-1.57-7.71-6-7.71H79Zm-2.49,5.24a2.56,2.56,0,0,1-2.48-2.62V14.82a2.55,2.55,0,0,1,2.48-2.62h6.54c6.49,0,11,5.32,11,12.94s-4.52,12.94-11,12.94Z"/><path class="cls-32" d="M78.93,32.73H83c4.44,0,6-4.17,6-7.71s-1.57-7.71-6-7.71H78.93ZM76.45,38A2.53,2.53,0,0,1,74,35.34V14.7a2.55,2.55,0,0,1,2.48-2.62H83c6.46,0,11,5.32,11,12.94S89.45,38,83,38Z"/><path class="cls-33" d="M78.84,32.64H82.9c4.43,0,6-4.17,6-7.71s-1.58-7.72-6-7.72H78.84Zm-2.48,5.22a2.56,2.56,0,0,1-2.48-2.62V14.6A2.55,2.55,0,0,1,76.36,12H82.9c6.48,0,11,5.32,11,12.94s-4.51,12.93-11,12.93Z"/><path class="cls-34" d="M78.74,32.55H82.8c4.45,0,6-4.17,6-7.72s-1.58-7.7-6-7.7H78.74Zm-2.47,5.2a2.54,2.54,0,0,1-2.48-2.6V14.5a2.54,2.54,0,0,1,2.48-2.6H82.8c6.46,0,11,5.32,11,12.93s-4.52,12.92-11,12.92Z"/><path class="cls-35" d="M78.64,32.45h4.07c4.45,0,6-4.17,6-7.71S87.15,17,82.71,17H78.64Zm-2.47,5.2a2.54,2.54,0,0,1-2.47-2.6V14.41a2.54,2.54,0,0,1,2.47-2.6h6.54c6.46,0,11,5.32,11,12.93s-4.51,12.91-11,12.91Z"/><path class="cls-48" d="M82.71,37.81H76.17a2.68,2.68,0,0,1-2.61-2.76V14.41a2.68,2.68,0,0,1,2.61-2.75h6.54c6.54,0,11.12,5.37,11.12,13.08S89.25,37.81,82.71,37.81ZM78.77,32.3h3.92c4.34,0,5.88-4.08,5.88-7.56S87,17.16,82.69,17.16H78.77Z"/><path class="cls-49" d="M76.17,37.19a2.09,2.09,0,0,1-2-2.14h0V14.41a2.1,2.1,0,0,1,2-2.14H82.7c6.21,0,10.54,5.13,10.54,12.47S88.91,37.19,82.71,37.19Zm2-4.28h4.5c4.77,0,6.48-4.4,6.48-8.17s-1.69-8.19-6.48-8.19h-4.5Z"/><path class="cls-1" d="M41.11,60.76a2.1,2.1,0,0,1,1.34-.46,1.58,1.58,0,0,1,1.1.39A1.33,1.33,0,0,1,44,61.75a2.55,2.55,0,0,1-.18.76,18.43,18.43,0,0,1-1.3,1.75A9.46,9.46,0,0,1,41,65.78a7.92,7.92,0,0,1-1.94,1,6.58,6.58,0,0,1-2.32.39,7.86,7.86,0,0,1-3.47-.75,8.07,8.07,0,0,1-2.73-2.08,9.35,9.35,0,0,1-1.77-3.09,11.47,11.47,0,0,1-.62-3.8,8.8,8.8,0,0,1,.38-2.65A15.11,15.11,0,0,1,29.69,52a9.54,9.54,0,0,1,1.65-2.19,11.65,11.65,0,0,1,2.2-1.68,21.44,21.44,0,0,1,2.85-1.39h0A16.11,16.11,0,0,1,38.28,46a6.57,6.57,0,0,1,1.77-.24,4,4,0,0,1,2.31.72A6.7,6.7,0,0,1,44.29,49a2.51,2.51,0,0,1,.07.55,1.43,1.43,0,0,1-.47,1.06,1.64,1.64,0,0,1-1.11.42,2.18,2.18,0,0,1-1.52-.69,11.66,11.66,0,0,0-.75-1.17.79.79,0,0,0-.62-.34,2.21,2.21,0,0,0-.62.13l-.9.31-.54.21a13.21,13.21,0,0,0-2.41,1.2,9,9,0,0,0-2,1.74A8,8,0,0,0,32,54.71a8.43,8.43,0,0,0-.51,3.07,8.15,8.15,0,0,0,.34,2.35,6.69,6.69,0,0,0,1,2.06,5.07,5.07,0,0,0,1.63,1.46,4.23,4.23,0,0,0,2.2.55,3.08,3.08,0,0,0,1.36-.31,5.06,5.06,0,0,0,1.16-.79,7.86,7.86,0,0,0,1-1.08,10.75,10.75,0,0,0,.81-1.22Z"/><path class="cls-1" d="M51.45,65.4a1.61,1.61,0,0,1-.56,1.31,1.86,1.86,0,0,1-1.15.41,1.68,1.68,0,0,1-1.09-.41,1.72,1.72,0,0,1-.6-1.19v-16a2,2,0,0,1-.83-.55,1.26,1.26,0,0,1-.34-.86,1.57,1.57,0,0,1,.62-1.27,13.84,13.84,0,0,1,3.4-1.58,12.68,12.68,0,0,1,3.77-.58,10.65,10.65,0,0,1,3,.41,7.35,7.35,0,0,1,2.58,1.39,7,7,0,0,1,2.06,2.43A6.38,6.38,0,0,1,63,51.56a7.11,7.11,0,0,1-.34,2.15,8.09,8.09,0,0,1-1,2,8.51,8.51,0,0,1-1.53,1.7,8.36,8.36,0,0,1-2,1.29l5.46,6a2,2,0,0,1,.47,1.1,1.29,1.29,0,0,1-.47,1,1.63,1.63,0,0,1-1.11.4,2.42,2.42,0,0,1-.76-.12,1.55,1.55,0,0,1-.69-.47c-.2-.25-.6-.7-1.2-1.39s-1.25-1.39-2-2.12-1.39-1.47-2-2.13l-1.19-1.34a21.52,21.52,0,0,1-3.2.3Zm6.67-16.68a4.66,4.66,0,0,0-1.7-.8,7.27,7.27,0,0,0-1.85-.23,8.62,8.62,0,0,0-3.1.55v8.69c.78,0,1.57-.11,2.36-.2a9.06,9.06,0,0,0,2.35-.62,4.1,4.1,0,0,0,1.34-.74,6.48,6.48,0,0,0,1.1-1.12,5.16,5.16,0,0,0,.76-1.33,4.18,4.18,0,0,0,.27-1.39,3.36,3.36,0,0,0-.34-1.5,3.63,3.63,0,0,0-1.19-1.33Z"/><path class="cls-1" d="M85.51,57.64a17.5,17.5,0,0,1-.88,2.52,17.25,17.25,0,0,1-1.35,2.55,13.29,13.29,0,0,1-1.82,2.21,7.46,7.46,0,0,1-2.28,1.52,20,20,0,0,1-2.07.68,8.13,8.13,0,0,1-2.08.27,6.2,6.2,0,0,1-1.81-.27c-.62-.18-1.23-.38-1.85-.58A6.4,6.4,0,0,1,68.94,65a8.43,8.43,0,0,1-1.58-2.2,10.68,10.68,0,0,1-.87-2.59,14.18,14.18,0,0,1-.28-2.75,8.53,8.53,0,0,1,0-1c0-.34,0-.67.1-1A12.26,12.26,0,0,1,67,53.19a17.09,17.09,0,0,1,1.13-2.46,14.8,14.8,0,0,1,1.51-2.23,9.14,9.14,0,0,1,1.77-1.69,10,10,0,0,1,5.46-1.61,9,9,0,0,1,4.47,1.16A8.26,8.26,0,0,1,85.5,52a11.76,11.76,0,0,1,.26,2.44,11.94,11.94,0,0,1-.07,1.58C85.62,56.59,85.6,57.11,85.51,57.64Zm-7.79,6.11A6.82,6.82,0,0,0,79.85,62a10.52,10.52,0,0,0,1.47-2.31,12.18,12.18,0,0,0,.86-2.62,13.24,13.24,0,0,0,.27-2.59,9.56,9.56,0,0,0-.17-1.77,6.74,6.74,0,0,0-.55-1.66,5.35,5.35,0,0,0-2.17-2.2,6,6,0,0,0-2.94-.76,5.25,5.25,0,0,0-1.71.29,6.74,6.74,0,0,0-1.58.81,7.56,7.56,0,0,0-1.59,1.7,11.5,11.5,0,0,0-1.18,2.15,12.53,12.53,0,0,0-.74,2.32,10.55,10.55,0,0,0-.25,2.25,9.24,9.24,0,0,0,.34,2.56A6,6,0,0,0,71,62.34a5.06,5.06,0,0,0,1.8,1.48,5.52,5.52,0,0,0,2.59.55,4.48,4.48,0,0,0,1.21-.17A4.74,4.74,0,0,0,77.72,63.75Z"/><path class="cls-1" d="M113.37,47a2,2,0,0,1,.68-1.09,1.76,1.76,0,0,1,2.2.09,1.58,1.58,0,0,1,.49,1.25,32.29,32.29,0,0,1-1.22,5.21q-.84,2.63-1.77,5.09c-.64,1.56-1.21,3.11-1.73,4.64a31.69,31.69,0,0,1-1.91,4.49,1.86,1.86,0,0,1-1.44.73,1.54,1.54,0,0,1-1.55-.9l-2.32-6.18c-.21-.6-.4-1.14-.58-1.63l-.53-1.45c-.18-.47-.36-1-.54-1.46s-.4-1.05-.65-1.65c-.25.69-.52,1.4-.79,2.15l-.79,2.12c-.67,1.8-1.26,3.38-1.77,4.72a34.61,34.61,0,0,1-1.57,3.52,1.83,1.83,0,0,1-1.44.72,1.78,1.78,0,0,1-1.68-1.13q-1-3.7-2.12-7.11c-.77-2.27-1.58-4.52-2.45-6.73L89,50.11a21.81,21.81,0,0,0-1-2.27,2.27,2.27,0,0,1-.24-.89,1.36,1.36,0,0,1,.47-1.06,1.62,1.62,0,0,1,1.13-.42,2,2,0,0,1,.86.23,2.17,2.17,0,0,1,.82.8c.32.69.67,1.5,1,2.43s.73,1.85,1.1,2.83.77,2.06,1.08,2.87.59,1.56.84,2.23.46,1.33.69,2,.41,1.31.61,2c.83-2.17,1.61-4.29,2.36-6.38a57.69,57.69,0,0,0,1.85-6.44,1.8,1.8,0,0,1,2.43-.76,1.78,1.78,0,0,1,.7.66c.46,1.21.88,2.36,1.27,3.43s.78,2.15,1.17,3.2l.64,1.85c.19.58.39,1.11.58,1.65s.4,1.1.62,1.67.46,1.18.74,1.82c.43-1.24.88-2.46,1.34-3.68s.89-2.42,1.3-3.62.79-2.42,1.12-3.63A35.15,35.15,0,0,0,113.37,47Z"/><path class="cls-1" d="M133.58,46.5a1.85,1.85,0,0,1,.64-1.1,1.63,1.63,0,0,1,1-.37,1.86,1.86,0,0,1,1.05.35,1.71,1.71,0,0,1,.67,1q0,4.85-.07,9.43c0,3.06-.16,6.22-.34,9.48a1.07,1.07,0,0,0,0,.25v.16a2.07,2.07,0,0,1-.69,1,1.57,1.57,0,0,1-.93.33,2.17,2.17,0,0,1-1.51-.72l-.24-.42q-1.17-2-2.39-3.78t-2.51-3.54q-1.28-1.71-2.63-3.42l-2.71-3.42V65.42a1.61,1.61,0,0,1-.57,1.3,1.82,1.82,0,0,1-1.11.42,1.77,1.77,0,0,1-1.12-.4,1.7,1.7,0,0,1-.6-1.18V47a1.88,1.88,0,0,1,.61-1.05,1.67,1.67,0,0,1,1.07-.36,2.63,2.63,0,0,1,1.31.52l1.06,1.24c1.76,2.1,3.46,4.17,5.1,6.19s3.2,4.19,4.71,6.49c.06-2.31.12-4.54.15-6.68s.06-4.39.05-6.75Z"/></g></g></g></g></svg>