<svg id="Layer_1" data-name="Layer 1" xmlns="http://www.w3.org/2000/svg" viewBox="0 0 500 500"><defs><style>.cls-1,.cls-2{fill:#9f4244;}.cls-2{fill-rule:evenodd;}.cls-3{fill:#414042;}</style></defs><title>Artboard 1</title><path class="cls-1" d="M314.3,194.36l-3.13-3.06.74-4.32a.39.39,0,0,0-.56-.41l-3.88,2-3.87-2a.4.4,0,0,0-.42,0,.41.41,0,0,0-.15.38l.73,4.32-3.14,3.05a.38.38,0,0,0,.22.66l4.33.64,1.93,3.93a.41.41,0,0,0,.12.14.4.4,0,0,0,.23.08.42.42,0,0,0,.36-.22l1.93-3.92,4.34-.63a.37.37,0,0,0,.31-.26A.37.37,0,0,0,314.3,194.36Z"/><path class="cls-1" d="M322.73,165.49l-7.89-1.26L311.4,157a.74.74,0,0,0-.63-.41.73.73,0,0,0-.65.39l-3.64,7.12-7.92,1a.73.73,0,0,0-.59.48.71.71,0,0,0,.18.73l5.64,5.66-1.46,7.86a.72.72,0,0,0,.27.7.73.73,0,0,0,.75.07l7.13-3.63,7,3.82a.7.7,0,0,0,.75,0,.71.71,0,0,0,.3-.69l-1.24-7.9,5.8-5.5a.73.73,0,0,0,.19-.73A.7.7,0,0,0,322.73,165.49Z"/><path class="cls-1" d="M300,154.91a1.76,1.76,0,1,0,2.17,1.22A1.76,1.76,0,0,0,300,154.91Z"/><path class="cls-1" d="M321.25,158.85a2,2,0,1,0-2.48-1.41A2,2,0,0,0,321.25,158.85Z"/><path class="cls-1" d="M296.5,181.31,297,179a.21.21,0,0,0-.07-.21.2.2,0,0,0-.22,0l-2.13,1-2.05-1.18a.24.24,0,0,0-.22,0,.22.22,0,0,0-.09.21l.31,2.34-1.76,1.58a.21.21,0,0,0,.11.36l2.32.43,1,2.16a.21.21,0,0,0,.19.12.21.21,0,0,0,.19-.11l1.13-2.08,2.34-.25a.17.17,0,0,0,.1,0,.27.27,0,0,0,.08-.1.2.2,0,0,0-.05-.22Z"/><path class="cls-1" d="M324.06,181.05a3,3,0,1,0,3.65,2.06A3,3,0,0,0,324.06,181.05Z"/><path class="cls-2" d="M387.88,243.41A134.27,134.27,0,1,1,144.15,131.73C122,194.28,157.43,237.46,157.43,237.46c-50.92-112.06,54.82-167,56.16-167.64A123.4,123.4,0,0,0,241,275.3h0l.05,0c1.22.66,21.09,11.22,50.07,11.73h0a122.74,122.74,0,0,0,64.15-16.47h0A124,124,0,0,0,387.88,243.41Z"/><path class="cls-1" d="M114.16,346h9.61v33.7H144.6v7.84H114.16Z"/><path class="cls-1" d="M181,379.8v7.72H148.81V346h31.4v7.71H158.37v9h19.28v7.48H158.37v9.61Z"/><path class="cls-1" d="M214.8,378.62H195.51l-3.68,8.9H182L200.5,346H210l18.58,41.54H218.48Zm-3-7.3-6.58-15.91-6.59,15.91Z"/><path class="cls-1" d="M231.71,346h18.87c13.59,0,22.91,8.19,22.91,20.77s-9.32,20.77-22.91,20.77H231.71Zm18.39,33.64c8.25,0,13.65-4.92,13.65-12.87s-5.4-12.88-13.65-12.88h-8.78v25.75Z"/><path class="cls-1" d="M306,387.52l-8-11.58h-8.84v11.58h-9.62V346h18c11.1,0,18,5.75,18,15.07A13.49,13.49,0,0,1,307,374.16l9.32,13.36Zm-9-33.71h-7.83v14.48H297c5.87,0,8.84-2.73,8.84-7.24S302.85,353.81,297,353.81Z"/><path class="cls-1" d="M322,346h9.61v41.54H322Z"/><path class="cls-1" d="M348.84,353.81h-13.3V346h36.21v7.83h-13.3v33.71h-9.61Z"/><path class="cls-1" d="M407.88,379.8v7.72H375.72V346h31.39v7.71H385.27v9h19.29v7.48H385.27v9.61Z"/><path class="cls-3" d="M121.61,410.81l-3.54,3.63v5.71h-4.14V397.83h4.14v11.45l11-11.45h4.65l-9.37,10,10,12.34h-4.85Z"/><path class="cls-3" d="M144.84,397.83H149v22.32h-4.14Z"/><path class="cls-3" d="M162.67,397.83h9.76c7.24,0,12.18,4.46,12.18,11.16s-4.94,11.16-12.18,11.16h-9.76Zm9.57,18.81c5,0,8.19-3,8.19-7.65s-3.22-7.65-8.19-7.65h-5.42v15.3Z"/><path class="cls-3" d="M196.68,397.83h9.76c7.23,0,12.18,4.46,12.18,11.16s-5,11.16-12.18,11.16h-9.76Zm9.56,18.81c5,0,8.2-3,8.2-7.65s-3.22-7.65-8.2-7.65h-5.42v15.3Z"/><path class="cls-3" d="M230.68,397.83h4.15v22.32h-4.15Z"/><path class="cls-3" d="M265.26,416.68v3.47H248.51V397.83h16.3v3.48H252.66v5.8h10.78v3.41H252.66v6.16Z"/><path class="cls-3" d="M275.66,417.79l1.44-3.22a12.31,12.31,0,0,0,7.36,2.46c3.48,0,5-1.25,5-2.91,0-4.81-13.27-1.65-13.27-9.94,0-3.61,2.87-6.67,9-6.67a14.06,14.06,0,0,1,7.43,2l-1.3,3.22A12.42,12.42,0,0,0,285.1,401c-3.44,0-4.84,1.34-4.84,3,0,4.75,13.23,1.66,13.23,9.86,0,3.57-2.9,6.63-9,6.63C281,420.47,277.51,419.39,275.66,417.79Z"/><path class="cls-3" d="M341.56,397.83v22.32h-4.14v-9.56H325.87v9.56h-4.14V397.83h4.14V407h11.55v-9.21Z"/><path class="cls-3" d="M355,410.42V397.83h4.15v12.44c0,4.59,2.07,6.57,5.67,6.57s5.65-2,5.65-6.57V397.83h4.08v12.59c0,6.51-3.67,10.05-9.76,10.05S355,416.93,355,410.42Z"/><path class="cls-3" d="M407.88,414.09c0,3.83-3,6.06-8.74,6.06H388.05V397.83h10.46c5.36,0,8.23,2.26,8.23,5.8a5.34,5.34,0,0,1-2.87,4.91A5.5,5.5,0,0,1,407.88,414.09Zm-15.69-13v6.16h5.87c2.87,0,4.5-1,4.5-3.06s-1.63-3.1-4.5-3.1Zm11.52,12.6c0-2.23-1.69-3.22-4.82-3.22h-6.7v6.44h6.7C402,416.9,403.71,415.91,403.71,413.68Z"/><path class="cls-3" d="M249.46,175.07s6-9.53-3.73-9.28c0,0-.66-6.61-7-3.88,0,0-2.26-5.62-7.44-1.52,0,0-4.43-5.6-7.87.71,0,0-5.7-5.29-7.3,2.48,0,0-6.26-4-6.92,3.47,0,0-7.25-2.13-6.76,5.2,0,0-7.24-1.26-4.58,6.06,0,0-6.47.27-2.85,7,0,0-6.47,1.31-.7,8,0,0-5.18,4.26,1.86,7.27,0,0-4.18,6.58,3.7,7,0,0-2.28,6.34,5,6,0,0-2.12,8,6.23,3.87a5.2,5.2,0,0,0,2.07,2.18c2,.9,4.74.43,4.37-4.11,0-.06,0-.11.09-.05.86,1.25,3.59,6.87,10.33,6.21h0a17.83,17.83,0,0,0,7.1.44s.59,1.07-1.6,1.46h0c-10,1.21-17.1,9.24-20.31,20a117.83,117.83,0,0,0,32.22,23.08h1l1,1a92,92,0,0,0,14.77,5.72,192.09,192.09,0,0,1,.89-28.62c0-.6,0-1.2.08-1.81,13.85-10.15,19.36-14.37,23.44-20.56,0,0-1.45-7.75-5.65-12-9.17,6.52-23,10.27-23,10.27a42.62,42.62,0,0,1-6.95.69c.16-.4.26-.63.26-.63,13.1-7.88,15.49-29.75,8.59-31.34S249.46,175.07,249.46,175.07Zm-6.91,28.79c14.25-4.29,17.21-9.06,17.21-9.06s1.43,8.6-4,11.45S242.55,203.86,242.55,203.86Z"/><path class="cls-3" d="M288.5,221.2c7.74.31,12.19-4.78,12.47-5.54s-.59-1.41-.59-1.41a2.18,2.18,0,0,0,.32-2.12c.67-2.78-1.49-2.78-1.49-2.78s-.47-1.66-2.51-.64c-1.72.86-3.12.3-4.67-.07a6,6,0,0,0,2.47,1.24c-3.71-.22-4.38-2.42-4.38-2.42-.57-1.38-.4-3.72-1.08-4-1-.35-2.54.54-3.56,2.51a11.83,11.83,0,0,1-2.43,3A32.31,32.31,0,0,1,288.5,221.2Z"/></svg>