<svg xmlns="http://www.w3.org/2000/svg" viewBox="0 0 74.44 72.36"><defs><style>.cls-1{fill:#030303;}.cls-2{fill:#171718;}.cls-3{fill:#141622;}.cls-4{fill:#1c2527;}.cls-5{fill:#191e20;}.cls-6{fill:#685df7;}.cls-7{fill:#84e3f5;}.cls-8{fill:#1f1f1f;}.cls-9{fill:#81ddef;}.cls-10{fill:#7ed7e5;}.cls-11{fill:#262626;}.cls-12{fill:#272727;}.cls-13{fill:#282828;}.cls-14{fill:#343434;}.cls-15{fill:#333;}.cls-16{fill:#fdfdfd;}.cls-17{fill:#77e2fa;}.cls-18{fill:#f1f5f7;}.cls-19{fill:#635afd;}.cls-20{fill:#edeef3;}.cls-21{fill:#76e3fb;}.cls-22{fill:#f0f7f7;}.cls-23{fill:#78e4fc;}.cls-24{fill:#d6e2e4;}.cls-25{fill:#e5eff1;}.cls-26{fill:#0e1027;}.cls-27{fill:#524ab7;}</style></defs><title>Asset 1</title><g id="Layer_2" data-name="Layer 2"><g id="Layer_1-2" data-name="Layer 1"><path class="cls-1" d="M10.42,20.43a12.66,12.66,0,0,0-2.23-1.82,4.55,4.55,0,0,1-1.32-6.52c1.37-2,3.88-2.44,6.13-.83,1.73,1.24,2.62,1.35,3.65-.9a5.63,5.63,0,0,1,9.67-1.21A7.1,7.1,0,0,0,32,12c3.86.11,5,2.39,3.27,5.81-1.36,2.64-2.63,5.31-4,8,1,.51,1.56-.19,2.17-.47.81-.36,1.63-.73,2.2.18a1.7,1.7,0,0,1-.55,2.42c-1,.7-2.11,1.25-3.17,1.86.29.55-.07.61-.47.63A1.46,1.46,0,0,0,30,30a35.35,35.35,0,0,1-15.9,1c-.63.34-.82-.29-1.19-.53H11.47c-.58.15-1.27.68-1.5-.42,1.68-.63,1.09-1.24-.11-1.5-1.58-.34-3-.81-3.77-2.63,2.26,2.59,5.15.83,7.69,1.43A2.87,2.87,0,0,1,14.85,27,42.47,42.47,0,0,0,26,27.09c2.22-.28,4-1.14,4.66-3.48a10.63,10.63,0,0,1,.75-1.56c1.27-2.56,1.26-2.52-1.44-3.17-2.87-.68-4.68-2.7-6.19-5.06-1.67-2.62-2.27-2.65-3.83.12-1.8,3.2-4.08,5.64-7.91,6.17C11.49,20.15,11,20.74,10.42,20.43Z"/><path class="cls-2" d="M31.54,30.39l.47-.63c3.38,3.08,7,5.88,9.64,9.69,1,1.44,2.32,2.79,2.83,4.38,1.3,4.12,4.7,6.58,7.12,9.81,1.13,1.52,2.56,1.25,4,.35a30.37,30.37,0,0,0,8.7-8.39c-.17-.19-.25-.35-.39-.43-.76-.42-2.13-.18-2.23-1.25-.13-1.28,1.28-1.34,2.14-1.66,1.49-.55,3.37-2,4.56-.9,1.4,1.29.15,3.44-.19,5.18-.26,1.31-1,2.15-2,.51-.86-1.34-1.27-.38-1.75.25a33.47,33.47,0,0,1-7.17,6.89c-3.4,2.42-5,2.12-7.41-1.28a19.29,19.29,0,0,0-1.48-1.66c-1.36,2.21-.62,4.64-.51,6.93.16,3.32.05,6.64.11,10a2.49,2.49,0,0,1-2.3,2.8c-3,.23-6.12.76-9.1-.43a52.88,52.88,0,0,1-23.14.94c-3.79-.63-7.66-3.36-8.81-6,.14,0,.37-.15.41-.1,4.43,5,10.41,5.71,16.56,5.92a57.43,57.43,0,0,0,11.41-.91c1.59-.26,2.3-1,2-2.66-.82-4,.77-6.63,4.29-8.44,2.48-1.27,4.28-3.55,7.06-4.53,1.1-.39.29-2.28.06-3.4s-1.27-.44-1.84-.21c-2.61,1.07-4.5,3.08-6.43,5-.48.5-.76,1.35-1.71,1.25.73-2.33,4.69-6.18,8-7.35,1.49-.53,1.5-1.11,1-2.28A40.35,40.35,0,0,0,34.51,33.34C33.45,32.43,32.17,31.74,31.54,30.39Z"/><path class="cls-3" d="M19,63.42c-4.42-1.74-7.74-4.55-8.66-9.45a11.84,11.84,0,0,1,8.56-13.83A12.09,12.09,0,0,1,33.3,47.39c2.36,3.94,1.45,7.71-.81,11.24A10.6,10.6,0,0,1,22.94,64,11.08,11.08,0,0,1,19,63.42Z"/><path class="cls-4" d="M63,70.51a2.06,2.06,0,0,1-1.7-2.36q.06-6.12,0-12.23a3,3,0,0,1,1.23-2.56c2.06-1.69,4.1-3.4,6.15-5.1,2.94-2.44,3.84-2.14,4.7,1.54A3.75,3.75,0,0,1,73.92,52c0,5.31,0,10.63,0,16,0,1.64-.68,2.87-2.3,3.06C68.76,71.29,65.85,71.71,63,70.51Z"/><path class="cls-5" d="M50.5,70.52c-1.18-.06-1.22-.88-1.21-1.76,0-3.33.1-6.66.1-10,0-1.83.67-2.29,2.25-1.25a19.08,19.08,0,0,1,1.67,1.08c1.43,1.2,2.78,1.63,4.23,0,.56-.64,1.38-1.07,2,0,.53,3.22.25,6.47.38,9.71.08,2.08-.87,2.93-2.82,2.82C54.91,71,52.62,71.64,50.5,70.52Z"/><path class="cls-6" d="M19,63.42c3.89.3,7.69.14,10.78-2.67,4.05-3.68,5.06-8.19,3.49-13.36,2.2,1.77,2.26,4.29,2.08,6.72C34.7,63.1,24.91,67,19,63.42Z"/><path class="cls-7" d="M63,70.51c2.5,0,5-.11,7.48,0,2.18.08,2.93-.89,2.9-3-.07-5.89,0-11.79,0-17.68,1,.49,1,1.44,1,2.35,0,5.79,0,11.58.07,17.38,0,2-.75,2.94-2.77,2.82-2.23-.13-4.46.19-6.68-.25A2.11,2.11,0,0,1,63,70.51Z"/><path class="cls-8" d="M12.86,30.45l1.19.53C13,33.5,10.8,35.15,9,37.06A27.59,27.59,0,0,0,1.17,52.31c-.45,3,.42,5.81.74,8.72a12.66,12.66,0,0,1-1.78-8.7C1,46,4,40.77,8.31,36.19,10,34.42,12.2,33,12.86,30.45Z"/><path class="cls-9" d="M36.51,70.51c2.83,0,5.66-.1,8.48-.06,1.72,0,2.39-.74,2.39-2.4q0-7.86.14-15.71c0-.44-.67-1.61.79-1.09a11.64,11.64,0,0,0-.27,6.1c.62,4.15.13,8.27.36,12.39.08,1.58-.56,2.28-2.17,2.24-2.49-.06-5-.07-7.46,0A2,2,0,0,1,36.51,70.51Z"/><path class="cls-10" d="M50.5,70.52c2.41,0,4.82-.13,7.22-.06,1.45,0,1.89-.52,1.87-1.89-.06-3.32,0-6.65,0-10,1.56,4,.6,8.17.79,12.26,0,.88-.63,1-1.36,1-2.24,0-4.48-.06-6.72,0C51.19,72,50.88,71.26,50.5,70.52Z"/><path class="cls-11" d="M46.82,13.69c1.37-.4,3.4.1,3.14-2.19s-2-2.78-3.79-2.89a13,13,0,0,0-7.53,2.19c-.65.39-1.07,1.34-2.11,1-.3-1.06.62-1.23,1.16-1.6C40.82,8.11,44.18,6.83,48,7.93a3.82,3.82,0,0,1,3,4.51C50.58,14.46,48.87,15,46.82,13.69Z"/><path class="cls-12" d="M31.42,7.75c.23-1.53,1.7-2.12,2.28-3.35.45-1,.89-2,0-3s-1.44.66-2.47.45A1.58,1.58,0,0,1,33.07,0c1.7.18,2.36,1.49,2.16,3C34.93,5.33,33.37,6.74,31.42,7.75Z"/><path class="cls-13" d="M10,30c.39.52,1,.22,1.5.42-1.8.79-3.78,1.23-5.38,2.46A31.51,31.51,0,0,1,1.58,36,13.7,13.7,0,0,1,10,30Z"/><path class="cls-14" d="M10.42,20.43c.49-.18.44-1,1.17-.91a11.66,11.66,0,0,1,3.54,5.3c.28.86.59,1.77-.16,2.58l-1.19-.08C13.84,24.45,11.87,22.57,10.42,20.43Z"/><path class="cls-15" d="M39.16,4.17a1.16,1.16,0,0,1-.7,1.42c-1,.68-1.64,2-3.1,2.06-.06,0-.23-.52-.16-.58C36.41,6,37.4,4.6,39.16,4.17Z"/><path class="cls-16" d="M15,27.4c0-2.25-1.09-4-2.26-5.82-.43-.65-1.27-1.1-1.12-2.06a7.69,7.69,0,0,0,6.1-3.33,27.38,27.38,0,0,0,2-3.11c1.87-3.13,2.53-3.14,4.38,0,2.07,3.52,4.79,6,9.51,5.35-.9,2.93-2.73,5.25-3.4,8-.05.21-.51.37-.81.46A27,27,0,0,1,15,27.4Z"/><path class="cls-17" d="M46.07,56.2c.6,4,.09,8,.24,12.08,0,1.06-.68,1.15-1.49,1.14l-7.94-.09c-1.11-3.65-.73-4.94,2.13-7C41.53,60.46,44.31,58.92,46.07,56.2Z"/><path class="cls-18" d="M46.07,56.2a2.94,2.94,0,0,1-1.48,2.86c-1.51,1-2.8,2.38-4.4,3.14-3.18,1.53-3.66,4.08-3.31,7.13-.24,0-.65,0-.7-.09-1.1-2.27,0-6.45,1.93-7.88s4.16-3,6.26-4.55C44.86,56.47,45.26,55.71,46.07,56.2Z"/><path class="cls-19" d="M26.7,41.93a10.72,10.72,0,0,1,4.86,15.12,11,11,0,0,1-15.19,3.86,8.39,8.39,0,0,1-3.25-3c-2.16-6.4-.68-11.45,4.3-14.79C20.33,41.16,23.45,41.08,26.7,41.93Z"/><path class="cls-20" d="M26.7,41.93c-7.34-.12-11.3,2.06-13.41,7.19-1.21,2.94-.61,5.84-.17,8.77-2.92-4.77-2.53-10,1-13.79A10.65,10.65,0,0,1,26.7,41.93Z"/><path class="cls-21" d="M72,49.87c.11,5.94.21,11.88.37,17.82,0,1.29-.47,1.77-1.75,1.72-2.39-.09-4.78-.08-7.18-.11-1-2-.41-4.09-.44-6.13-.08-7.07,0-7.09,5.58-11.53C69.55,50.85,70.43,49.7,72,49.87Z"/><path class="cls-22" d="M72,49.87c-1.76,1.37-3.45,2.86-5.3,4.1a6.88,6.88,0,0,0-3.31,7.11,70.41,70.41,0,0,1,0,8.22c-1.27.16-1-.8-1-1.47,0-3.89,0-7.78,0-11.67a2.21,2.21,0,0,1,.8-1.94c2.32-1.87,4.57-3.82,6.86-5.72.43-.35.9-.91,1.52-.6C72.43,48.34,72.09,49.16,72,49.87Z"/><path class="cls-23" d="M52.55,59.43a5.92,5.92,0,0,1,2.26,1.46c1.07,1,2.42.23,3.6.56,0,.24.09.49.1.74.23,7.62.23,7.62-7.55,7.12-.59-2.9-.2-5.83-.21-8.75C50.74,59.57,51.34,58.85,52.55,59.43Z"/><path class="cls-24" d="M52.55,59.43c-1.36,0-1.59.88-1.58,2,0,2.63,0,5.26,0,7.89-1.12-.14-.61-1-.62-1.55,0-3.07,0-6.14,0-9.29A2.61,2.61,0,0,1,52.55,59.43Z"/><path class="cls-25" d="M58.41,61.45c-1.39,1.06-2.63,1.13-3.6-.56,1.55.51,2.26-1.16,3.53-1.4A2.61,2.61,0,0,1,58.41,61.45Z"/><path class="cls-26" d="M29.44,53.86c-4.25,2.7-9.16.84-14,1.91,1.37-1.51,1.45-3.21,1.52-5a2.62,2.62,0,0,1,1.68-2.29,1.06,1.06,0,0,1,1.32.39c.79,1,.17,1.88-.12,2.8-.07.24-.31.44-.32.67-.06.68-1.69,1.25-.37,1.93A2.05,2.05,0,0,0,22,53.71c.38-.63.55-1.67,1.4-1.51,1.06.2.41,1.11.39,1.79s.72.63,1,.38C26.27,53.3,28,54.35,29.44,53.86Z"/><path class="cls-27" d="M18,52.48c-.27-1.42-.11-2.32,1.1-3C19.5,50.73,19,51.46,18,52.48Z"/></g></g></svg>