<svg xmlns="http://www.w3.org/2000/svg" viewBox="0 0 72.25 74.08"><defs><style>.cls-1{fill:#13141b;}.cls-2{fill:#77e4fb;}.cls-3{fill:#6a60f5;}.cls-4{fill:#695cf3;}.cls-5{fill:#212426;}.cls-6{fill:#7fe0f0;}.cls-7{fill:#232325;}.cls-8{fill:#262626;}.cls-9{fill:#2e2e2e;}.cls-10{fill:#363636;}.cls-11{fill:#2c2c2c;}.cls-12{fill:#8dd2d3;}.cls-13{fill:#635bfe;}.cls-14{fill:#79e3fc;}.cls-15{fill:#f3f3f5;}.cls-16{fill:#f8f8fa;}.cls-17{fill:#dcedf0;}.cls-18{fill:#d5d6e7;}.cls-19{fill:#e8e8f3;}.cls-20{fill:#6d62e5;}</style></defs><title>Asset 4</title><g id="Layer_2" data-name="Layer 2"><g id="Layer_1-2" data-name="Layer 1"><path class="cls-1" d="M44.67,32.89a25.62,25.62,0,0,0,8.64,11.54c2.14,1.59,3.79.85,4.33-1.78.92-4.54-.29-8.9-1.38-13.24-.52-2-1.17-4.05-1.77-6.08.68-.16.93,0,1,.36A51,51,0,0,1,59,39.91a12.77,12.77,0,0,1-.51,3.68C57.76,46,56,46.82,53.63,45.84c-1.6-.66-3.15-1.43-4.72-2.15-1.25.38-2.25-.41-3.33-.74-5.65-1.76-11.34-2.51-17.15-.81-.77.22-1.93.36-.44,1.34,2.93.89,4.91,3.63,8.14,4.06.91.12,1.23,1.51,1,2.57a6.86,6.86,0,0,0,1.06,5.48,2.7,2.7,0,0,1-.62,4c-2.29,1.58-4.84,2.73-7.21,4.29.45-1.51,1.75-2.15,2.9-2.89s2.32-1.3,3.45-2a2,2,0,0,0,.67-2.83c-.7-1.31-1.49-.32-2.26,0-2.13,1-4.48,1.6-6.12,4.21-.22-2.36,1.13-2.95,2.27-3.59S33.84,55.65,35.1,55a1.88,1.88,0,0,0,1-2.28c-.26-1.3-1.24-.77-2-.82-3.51-.25-5.73,1.62-7.27,5-.37-2.88,2.25-5.57,5.27-5.94.74-.09,1.5,0,2.24-.09s1.54-.17,1.7-1.12a1.76,1.76,0,0,0-1.27-1.93,5.54,5.54,0,0,0-5,.59C24.2,51.55,21,56.49,19.21,62.53a8.6,8.6,0,0,1-.79,4.27.93.93,0,0,1-1.12.71c-.63-.2-.36-.79-.35-1.25.62-2.06.86-4.35,1.95-6.12,1.85-3,2-6.26,2.24-9.54.13-1.72-1.16-2.83-2.17-4a1.77,1.77,0,0,0-1.43-.21c-5.61,2-11.28-4-11.15-10a9.19,9.19,0,0,1,.1-2.22c0-3.31,1.82-5.4,4.75-6.64,1.22-.52,2.46-1,3.72-1.41,9.18-2.94,15.25-9.1,18.74-18,.73-1.85,1.32-3.75,2-5.61,1-2.52,2.75-3.21,5.14-2a17.27,17.27,0,0,1,5.39,5.1A55.14,55.14,0,0,1,52,15.29c.23.47.77.93.33,1.72-1.13-.09-1.17-1.18-1.53-1.86-2.21-4.21-4.55-8.32-8-11.69-1.28-1.27-2.71-3-4.66-2.25s-1.91,3.12-2,5A40.87,40.87,0,0,0,37.77,16.5c.22,1,.46,1.63,2,1.19,3.32-1,6.2.23,8.48,2.82C52.23,24.46,49.92,32,44.67,32.89Z"/><path class="cls-2" d="M17,66.26c.07.31,0,.76.23.9.53.38.67-.22.75-.52a16.55,16.55,0,0,1,1.28-4.12l8.14,6.6c.79.5.15,1-.12,1.28-.94,1.11-1.65,2.37-2.54,3.51a2.94,2.94,0,0,1-3.16-.77C20.35,72,19.07,71,17.8,69.9A2.62,2.62,0,0,1,17,66.26Z"/><path class="cls-3" d="M28,43.48c-.83.31-1.82.91-2.2-.44s1-1.13,1.61-1.29a29.5,29.5,0,0,1,21.51,1.94c.07.6.87,1.22.22,1.77s-1.24,0-1.84-.3a31.16,31.16,0,0,0-15.5-2.63A7.23,7.23,0,0,0,28,43.48Z"/><path class="cls-4" d="M6.49,34.19a13.46,13.46,0,0,0,2.22,8c2,3,4.62,4.43,8.23,3.65.9-.19,1.63-.23,2,.77-6.71,2.9-12.07-.31-12.81-7.77C6,37.29,5.7,35.68,6.49,34.19Z"/><path class="cls-5" d="M24.69,73.91c.12-2,1.64-3.27,2.66-4.79a32.06,32.06,0,0,1,9.89-6.57c1.54-.6,1.52-1.72,1.54-3.1,1.53,1.88,1.29,2.94-1,4a29.41,29.41,0,0,0-9.22,6.22,6.75,6.75,0,0,1-2.32,3C25.75,73.05,25.86,74.25,24.69,73.91Z"/><path class="cls-6" d="M44.67,32.89c5.18-3.21,6.23-6.83,3.56-12.38a6.6,6.6,0,0,1,2.47,7.61C49.62,31.51,47.71,33,44.67,32.89Z"/><path class="cls-7" d="M71.8,36C70,35.33,69,33.52,67.21,32.68c-.74,3.08-2.22,2.18-3.89.71-1-.91-2.18-1.68-3.76-2.88,2.43-.17,3.28,1.37,4.51,2.11.91.55,1.6,1.29,2.15-.33.37-1.11,1-1.34,2-.43,1.29,1.23,2.68,2.35,4,3.52Z"/><path class="cls-8" d="M54.49,10.69a29.24,29.24,0,0,1,3.59-5.46.92.92,0,0,1,.86-.16c2.54,2.67,2.61-.49,3.57-1.5.47-.5.48-1.47,1.78-1.5a18,18,0,0,1-3.05,5.58c-.6.87-1.17-.12-1.54-.54-.83-.92-1.33-.61-1.9.26C57,8.66,56,9.9,55.13,11.16Z"/><path class="cls-9" d="M.56,9.78,11.9,16.05l-.51.94L0,10.74Z"/><path class="cls-10" d="M17,6.1a7.73,7.73,0,0,1,.77,5.65A8.36,8.36,0,0,1,17,6.1Z"/><path class="cls-11" d="M14.88,13.64c-1.7-1.41-2.49-3.23-3.86-5.15A6.24,6.24,0,0,1,14.88,13.64Z"/><path class="cls-12" d="M26.26,72.59a7.24,7.24,0,0,1,2.32-3C28.93,71.5,27.81,72.21,26.26,72.59Z"/><path class="cls-13" d="M46,41.06a36.28,36.28,0,0,0-17.72-.66,41,41,0,0,0-8.79,3.42c-2.53,1.25-5.1,1.8-7.74,0,.85-1.35,2.81-1,3.34-2.71-1.36-.29-2.17.79-3.24,1.08a2.45,2.45,0,0,1-3-2c-.12-1,.73-.74,1.16-.92,1.52-.62,3.2-.94,4.15-2.66-1.42.53-2.85,1-4.26,1.58s-2.06,0-2.18-1.37c-.16-2-.43-4,.68-5.82,2.36-1.23,4.5-3,7.39-2.85.57,4.49,1.92,8.61,5.55,11.7-2.07-3.73-4.52-7.32-4.31-11.85,1-1.56,2.74-2,4.19-2.89a19.2,19.2,0,0,0,5.62-4.72c3.38-3.59,6.52-7.34,7.94-12.25.76.4.72,1.07.71,1.72-.22,5,1.12,9.66,2.76,14.24a67,67,0,0,0,7.19,14.67C45.84,39.47,46.54,40.13,46,41.06Z"/><path class="cls-14" d="M41.73,18.54c3.53.09,6.09,2.08,6.8,5.29s-.78,6.09-4,7.66c-2.68-3.16-3.75-7-4.9-10.89C39.19,18.93,40.7,18.88,41.73,18.54Z"/><path class="cls-15" d="M46,41.06c-4.52-7-8.31-14.38-10.12-22.59-.62-2.8-1.51-5.64-.42-8.55A72.61,72.61,0,0,0,49.29,42.51,9,9,0,0,1,46,41.06Z"/><path class="cls-16" d="M25,44c3.32,4,3.32,4-1.5,8.15L20.18,46A4.69,4.69,0,0,1,25,44Z"/><path class="cls-17" d="M41.73,18.54c-1.73.63-1.76,1.77-1.24,3.34a69.5,69.5,0,0,0,4.09,9.61c-.67.68-1,.14-1.23-.39A49.75,49.75,0,0,1,39,20.2C38.41,18,40.54,18.7,41.73,18.54Z"/><path class="cls-18" d="M26.81,20.45c-1.65,3.34-4.92,4.79-7.83,6.63a18.21,18.21,0,0,1-2,1c-.79-1.17.06-1.61.93-1.95A31.72,31.72,0,0,0,26.81,20.45Z"/><path class="cls-19" d="M15.76,28.21,8.37,31.06c1.57-2.35,4.16-3,6.59-3.84C16,26.85,15.69,27.71,15.76,28.21Z"/><path class="cls-20" d="M25,44l-4.77,2c-.11-.11-.34-.23-.33-.34.15-1.83,2-1.51,3-2.22C23.63,42.83,24.53,42.71,25,44Z"/></g></g></svg>