<svg xmlns="http://www.w3.org/2000/svg" viewBox="0 0 74.79 74.81"><defs><style>.cls-1{fill:#77e3fd;}.cls-2{fill:#1d1d1e;}.cls-3{fill:#1b1b1b;}.cls-4{fill:#161723;}.cls-5{fill:#1a2022;}.cls-6{fill:#131b1d;}.cls-7{fill:#242224;}.cls-8{fill:#0a0a0a;}.cls-9{fill:#192125;}.cls-10{fill:#7adff4;}.cls-11{fill:#82e1ee;}.cls-12{fill:#6b60e9;}.cls-13{fill:#81e0f0;}.cls-14{fill:#29282a;}.cls-15{fill:#84d9e8;}.cls-16{fill:#84d8e9;}.cls-17{fill:#7064e5;}.cls-18{fill:#665cf8;}.cls-19{fill:#ebebf0;}.cls-20{fill:#d9ddd9;}.cls-21{fill:#79e3f8;}.cls-22{fill:#eaf0f1;}.cls-23{fill:#e7ecef;}.cls-24{fill:#78e2f9;}.cls-25{fill:#edf2f3;}.cls-26{fill:#ebf2f3;}.cls-27{fill:#f0f0f0;}</style></defs><title>Asset 3</title><g id="Layer_2" data-name="Layer 2"><g id="Layer_1-2" data-name="Layer 1"><path class="cls-1" d="M24.4,69c-.28-5.78-.54-11.55-.87-17.32-.1-1.55.32-2.52,1.92-2.93s3.14-1,4.74-1.47c1.26-.35,2.54-.49,2.84,1.33-1.83,2.84-4.64,2.39-7,2.42a9.67,9.67,0,0,0,4.8-.55c.68-.19,1.3-.84,2.08-.28q0,9.39,0,18.77A22.92,22.92,0,0,1,24.4,69Z"/><path class="cls-2" d="M36.12,36.75c1.57-6.63,5.71-10.14,11.77-11.67,2.56-.65,5.18-1.15,7.67-2,4.79-1.67,7.29-5.19,7.34-9.89a11.24,11.24,0,0,0-7.3-10.9C50.56.38,45.41,1,40.3,1.87c-2.46.41-4.89,1-7.34,1.52-.77.16-1.55.64-2.38,0,.15-.21.26-.53.43-.58C37.65,1.23,44.29-.5,51.22.13c9,.82,14.37,7.89,12.32,16-1.16,4.63-4.47,7-8.76,8.35-1.9.59-3.85,1-5.8,1.43-6.85,1.42-11.09,5.35-12.07,12.4-.8.3-1.1-.32-1.5-.67a18.49,18.49,0,0,0-17.18-4.38c-1.46.33-2.91.71-4.39.92-5.76.85-10-1.37-12.49-6.46A12,12,0,0,1,3.72,13.5c3-3,13.91-7.72,18.56-8.06-.36,1-1.19,1-1.89,1.26-4.91,1.76-10,3.19-14.3,6.26C.75,16.74-.5,23.21,3.07,28.58,5.49,32.22,8.82,34,13.3,33.22a20,20,0,0,0,2.21-.39C23,30.55,29.81,31.48,36.12,36.75Z"/><path class="cls-3" d="M33,50.21c-2.72,1.14-5.47,1.94-8.39.54,2.91-.41,6.06.2,8.46-2.13,5.22-3.65,9.2-8.14,9.88-14.81.13-1.34.54-2.45,1.9-2.94a3.24,3.24,0,0,1,3.43.94,12,12,0,0,1,4,10.8c-.37,2.52.33,2.72,2.41,2.45A9.64,9.64,0,0,1,60.2,46c4.19,2.07,5,6.13,1.81,9.51-.28.3-.84.6-.6.95,2.12,3-.62,5.68-.71,8.54-.06,1.89-1.21,4.15-2.1,6.15A5.62,5.62,0,0,1,55.3,74a16.11,16.11,0,0,1-8.34.52c.47-1.31,1.33-.77,2-.77a14.78,14.78,0,0,0,5.91-.68,5.39,5.39,0,0,0,3-2.82c.62-1.44.71-2.37-1.4-2.08-1.49.2-3.05.32-4.42-1h4.73a3,3,0,0,0,2.86-1.65c.86-1.67.26-2.55-1.62-2.46-1.7.09-3.41.17-5.22-1.45,2,.17,3.58.4,5.11.38,1.93,0,3.2-1,3.12-3.08-.07-1.93-1.12-2.78-3.1-2.7a4.35,4.35,0,0,1-4.1-2c2,.34,3.51,1.11,5.15,1,3.33-.16,5-3,3.37-5.93a6.27,6.27,0,0,0-5.11-3.14,10.62,10.62,0,0,0-4.21.09c-2.9.93-2.44-.45-2-2.32,1-4.22-.29-7.87-3.16-11a2.55,2.55,0,0,0-2.63-1.06c-1.14.36-1.21,1.39-1.31,2.44-.62,6.27-4.49,10.55-9,14.41C34.31,49.24,33.62,49.71,33,50.21Z"/><path class="cls-4" d="M37.49,23.06a4.82,4.82,0,0,1-2.76-.21c-1.52-.09-2.43,1.16-3.67,1.68-1.52,1.42-2.48.43-2.48-1,0-2.12-.69-3.25-2.71-4-1.58-.58-1.54-2,.07-2.56,2-.67,2.19-2.15,2.42-3.82.33-2.46.92-2.66,2.9-1.17,1.56,1.17,2.8,3.18,5.31,2.06.48-.22.87.32,1.11.79s.36.83.16,1.18a4.43,4.43,0,0,0,.2,5.19A1.14,1.14,0,0,1,37.49,23.06Z"/><path class="cls-5" d="M12.08,29.49c-1.34,1-2.24.36-2.1-1,.23-2.42-.78-3.69-3-4.32a1.32,1.32,0,0,1,.24-2.6c1.84-.36,2.26-1.55,2.3-3.24,0-.91,0-2.16,1.09-2.59s1.74.73,2.35,1.43c1.14,1.3,2.14,2.54,4.17,1.53a1.33,1.33,0,0,1,1.93,1,1.37,1.37,0,0,1,0,1.42,4.07,4.07,0,0,0,.05,4.24,1.68,1.68,0,0,1-.23,2.26l-3.1-.06C14.12,27.35,13.36,28.92,12.08,29.49Z"/><path class="cls-6" d="M49.06,20.49c-1.66.74-2.23-.18-2.07-1.58.21-1.94-.45-3.13-2.34-3.65-.74-.21-1.5-.55-1.58-1.4-.1-1,.83-1.44,1.59-1.6,1.72-.37,1.74-1.61,2-3,.16-.94-.16-2.35,1.25-2.69,1.22-.3,1.75.83,2.35,1.53,1.08,1.26,2.07,2.3,4,1.49a1.35,1.35,0,0,1,1.9.66,1.86,1.86,0,0,1,0,1.88,3.74,3.74,0,0,0,.14,4.14,1.6,1.6,0,0,1-.32,2.22,4.9,4.9,0,0,1-2.55-.06C51.34,17.94,50.47,19.78,49.06,20.49Z"/><path class="cls-3" d="M6.55,45.6a3.71,3.71,0,0,0,3.26-.8c.43-.37,1-.74,1.55-.26s.36.88.21,1.37a4,4,0,0,0,1,4.29,1.13,1.13,0,0,1,.31,1.35,1.17,1.17,0,0,1-1.54.45,5.23,5.23,0,0,0-4.67.87c-1.23.79-1.91.21-1.68-1.2.29-1.76.26-3.28-1.09-4.77C2.91,45.84,3.52,45.42,6.55,45.6Z"/><path class="cls-7" d="M64,31c4.92-7.49,5.9-15.33,2.06-24.1C71.31,11.53,69.94,26.65,64,31Z"/><path class="cls-8" d="M15.4,58.21a7.11,7.11,0,0,1,4.32,3.17c.06.15.2.29.22.44.11.76-.29,1-1,1-4.48.5-4.51.52-4.54-.46,0-.8.27-1.61-.32-2.38C12.52,58,14,58.09,15.4,58.21Z"/><path class="cls-9" d="M24.4,69a20.16,20.16,0,0,1,8.54,0l9.39,3.74-.2.63c-3.12-.23-5.72-2.28-8.72-2.91-3.11-.2-6.24.23-9.35-.23C23.91,69.73,23.83,69.28,24.4,69Z"/><path class="cls-10" d="M24.06,70.21c3.13-.66,6.27-1.14,9.35.23a2.5,2.5,0,0,1-3.18,1.68C28.13,71.65,25.69,72.23,24.06,70.21Z"/><path class="cls-11" d="M18.9,27.6c0-.48.28-1.2.06-1.41-2.39-2.26-.83-4.37.14-6.51,1.66-.09,2.24.64,1.25,2-1.12,1.57-1.24,2.93.08,4.4a1.1,1.1,0,0,1,.15,1.56A1,1,0,0,1,18.9,27.6Z"/><path class="cls-12" d="M37.49,23.06c.25-.62.54-1.28,0-1.85-1.62-1.72-1.48-3.4,0-5.16.22-.27.15-.78.22-1.18,1.83.23,2.37,1.07,1.15,2.59a2.72,2.72,0,0,0,.14,4c.44.49.87,1.15.32,1.78S38.08,23.27,37.49,23.06Z"/><path class="cls-13" d="M55.89,18.52c.08-.4.37-1,.21-1.17-2.24-2.38-1-4.72,0-7.07,1.7.3,2.39,1.07,1.21,2.65-1,1.33-1.36,2.59.07,3.89.49.45.86,1.09.31,1.75S56.47,18.83,55.89,18.52Z"/><path class="cls-14" d="M74,20.47a28.31,28.31,0,0,0-1.18-7C74.76,14.17,75.49,17.94,74,20.47Z"/><path class="cls-15" d="M49.06,20.49c1-1.66,1.84-3.5,4.28-2a2.77,2.77,0,0,0-1.68,1.38C51.06,21.3,50.1,21,49.06,20.49Z"/><path class="cls-16" d="M12.08,29.49c1-1.18,1.37-3.43,3.72-1.95C14.6,28.26,14.44,31,12.08,29.49Z"/><path class="cls-17" d="M31.06,24.53c.75-1.61,1.78-2.59,3.67-1.68a18.39,18.39,0,0,0-1.6,1.83C32.3,25.93,31.7,25.24,31.06,24.53Z"/><path class="cls-18" d="M29.51,20.56l-2-1.51c-.06-.16-.13-.39,0-.47a14.31,14.31,0,0,0,3.72-4.9c1.3,2.14,3.18,2.2,5.54,1.36-1.54,2.31-2.75,4.48.14,6.7-2.1.58-3.74-1-5.37,0C30.49,21.9,30,21.18,29.51,20.56Z"/><path class="cls-19" d="M31.17,13.68c.52,3-2,3.94-3.69,5.37-.63,0-1.12-.23-1.76-1,3.65-.38,3.47-3.21,3.79-5.72C30.52,12.31,30.75,13.11,31.17,13.68Z"/><path class="cls-20" d="M29.51,20.56a2.63,2.63,0,0,1,2,1.19c-.61.6-.53,1.7-1.6,2.15C29.07,22.86,29.57,21.66,29.51,20.56Z"/><path class="cls-21" d="M10.81,25.14,8.58,23.62c1.3-1.79,3.25-3.11,3.93-5.35,1.31,2.15,3.25,2.13,5.6,1.41-1.8,2.32-2.59,4.52.05,6.71-2.07.57-3.86-1.38-5.51.23C11.67,26.57,11.48,25.56,10.81,25.14Z"/><path class="cls-22" d="M12.51,18.27c.25,2.93-1.85,4.14-3.93,5.35a1.43,1.43,0,0,1-1.38-.83c.88-.94,2.64-.64,3.07-2.23.32-1.19,0-2.5.75-3.65C11.87,17,12.11,17.7,12.51,18.27Z"/><path class="cls-23" d="M10.81,25.14c.81.25,1.57.56,1.83,1.48a3.27,3.27,0,0,1-1.59,1.93C11,27.33,10.89,26.23,10.81,25.14Z"/><path class="cls-24" d="M49.56,9.2c1.3,2.08,3.22,2.08,5.55,1.41-1.87,2.37-2.35,4.57.22,6.74-2.09.49-3.66-1.17-5.35-.23-1,.36-1.46-.53-2.06-1.05l-2-1.48c-.23-.27-.38-.74-.09-.86C47.94,12.88,48.66,11,49.56,9.2Z"/><path class="cls-25" d="M49.56,9.2c0,2.16-.43,4-2.94,4.45-.49.1-.6.52-.66.94-.71,0-1.23-.36-2.11-1.07,3.88-.3,3.65-3.26,4.07-5.77A2.29,2.29,0,0,1,49.56,9.2Z"/><path class="cls-26" d="M47.92,16.07c.9-.06,1.32.8,2.06,1.05l-1.51,2.41-.55,0Z"/><path class="cls-27" d="M6.09,52.34c.1-3.92.1-3.92-1-5.62,1.71-.49,3.72.79,5.18-1.07A5.67,5.67,0,0,0,12,51C9.68,50.65,7.78,50.34,6.09,52.34Z"/></g></g></svg>